<?xml version="1.0" encoding="utf-8"?>
<!-- Generator: Adobe Illustrator 19.0.0, SVG Export Plug-In . SVG Version: 6.00 Build 0)  -->
<svg version="1.1" id="图层_1" xmlns="http://www.w3.org/2000/svg" xmlns:xlink="http://www.w3.org/1999/xlink" x="0px" y="0px"
	 viewBox="0 0 200 200" style="enable-background:new 0 0 200 200;" xml:space="preserve">
<style type="text/css">
	.st0{fill:#FFFFFF;}
</style>
<path id="XMLID_535_" class="st0" d="M150.1,133.3c0.2-1.5,0.2-3,0.2-4.6V90.1c0-21.9-14-40.5-33.6-47.4c0.4-1.5,0.7-3.1,0.7-4.7
	c0-9.6-7.8-17.4-17.4-17.4S82.6,28.4,82.6,38c0,1.7,0.2,3.3,0.7,4.8c-19.5,6.9-33.5,25.5-33.5,47.4v38.5c0,1.6,0.1,3.2,0.2,4.6
	l-19.4,18.8c0,4.2,3.4,7.6,7.6,7.6h44.6c-0.1,0.8-0.2,1.6-0.2,2.4c0,9.6,7.8,17.4,17.4,17.4s17.4-7.8,17.4-17.4
	c0-0.8-0.1-1.6-0.2-2.4h44.7c4.2,0,7.6-3.4,7.6-7.6L150.1,133.3z M109.2,40.7c-3-0.6-6.1-0.9-9.2-0.9c-3.2,0-6.3,0.3-9.3,0.9
	c-0.3-0.9-0.4-1.8-0.4-2.8c0-5.3,4.4-9.7,9.7-9.7c5.4,0,9.7,4.4,9.7,9.7C109.7,38.9,109.5,39.8,109.2,40.7z"/>
</svg>
