<?xml version="1.0" encoding="utf-8"?>
<!-- Generator: Adobe Illustrator 19.0.0, SVG Export Plug-In . SVG Version: 6.00 Build 0)  -->
<svg version="1.1" id="图层_1" xmlns="http://www.w3.org/2000/svg" xmlns:xlink="http://www.w3.org/1999/xlink" x="0px" y="0px"
	 viewBox="0 0 200 200" style="enable-background:new 0 0 200 200;" xml:space="preserve">
<style type="text/css">
	.st0{fill:#FFFFFF;}
</style>
<g id="XMLID_625_">
	<path id="XMLID_635_" class="st0" d="M179.9,79.9h-5.8c-3.7,0-8.4,1.2-12.6,2.6v-30c0-7-5.8-12.7-13-12.7h-34.1
		c1.8,4.7,3.6,10.7,3.6,15.2v5.8c0,9.5-7.7,17.2-17.2,17.2H99c-9.5,0-17.2-7.7-17.2-17.2V55c0-4.5,1.8-10.5,3.6-15.2H51.3
		c-7.2,0-13,5.7-13,12.7v30.2c-4.2-1.4-8.9-2.7-12.5-2.7H20c-9.4,0-17.1,7.7-17.1,17.1v5.8c0,9.4,7.7,17.1,17.1,17.1h5.8
		c3.7,0,8.4-1.2,12.5-2.6v30.2c0,7,5.8,12.7,13,12.7h34c-1.8-4.8-3.7-10.9-3.7-15.5v-5.9c0-9.6,7.8-17.3,17.3-17.3h1.9
		c9.6,0,17.3,7.8,17.3,17.3v5.9c0,4.6-1.9,10.7-3.7,15.5h34c7.2,0,13-5.7,13-12.7v-30.1c4.2,1.4,8.9,2.7,12.6,2.7h5.8
		c9.5,0,17.2-7.7,17.2-17.2v-5.8C197.1,87.6,189.4,79.9,179.9,79.9z"/>
</g>
</svg>
