<?xml version="1.0" encoding="utf-8"?>
<!-- Generator: Adobe Illustrator 19.0.0, SVG Export Plug-In . SVG Version: 6.00 Build 0)  -->
<svg version="1.1" id="图层_1" xmlns="http://www.w3.org/2000/svg" xmlns:xlink="http://www.w3.org/1999/xlink" x="0px" y="0px"
	 viewBox="0 0 200 200" style="enable-background:new 0 0 200 200;" xml:space="preserve">
<style type="text/css">
	.st0{fill:#FFFFFF;}
</style>
<g id="XMLID_464_">
	<path id="XMLID_472_" class="st0" d="M62.6,74.9c-7.9,0-14.4,6.4-14.4,14.4c0,7.9,6.4,14.4,14.4,14.4c7.9,0,14.4-6.4,14.4-14.4
		C76.9,81.4,70.5,74.9,62.6,74.9z"/>
	<path id="XMLID_465_" class="st0" d="M161,44.7c-3.6-7.7-14.3-6.9-21.1-3.4c-5.5,2.9-23.2,11.9-40.1,11.9
		c-17.4,0-35.4-9.3-40.5-11.9c-6.5-3.4-16.8-4-20.2,3.4c-28.7,61.5-23.8,96.1-21,103.7c3.2,8.9,16.7,15.4,25.8,12
		c4.8-1.7,18.1-9.5,34.5-30.2l0,0c0,0,7.7-8.8,21.5-8.8s21.7,8.8,21.7,8.8l0,0c16.4,20.7,29.7,28.5,34.5,30.2
		c9.1,3.3,22.6-3.1,25.8-12C184.7,140.7,189.6,106.2,161,44.7z M62.6,112.4c-12.7,0-23.1-10.3-23.1-23.1c0-12.7,10.3-23.1,23.1-23.1
		s23.1,10.3,23.1,23.1C85.6,102.1,75.3,112.4,62.6,112.4z M127.4,93.4c0,1.5-1.3,2.8-2.8,2.8h-7.3c-1.5,0-2.8-1.3-2.8-2.8v-6.8
		c0-1.5,1.3-2.8,2.8-2.8h7.3c1.5,0,2.8,1.3,2.8,2.8V93.4z M144.8,110.3c0,1.6-1.3,2.8-2.8,2.8h-7.3c-1.5,0-2.8-1.3-2.8-2.8v-6.8
		c0-1.5,1.3-2.8,2.8-2.8h7.3c1.5,0,2.8,1.3,2.8,2.8V110.3z M144.8,75.9c0,1.5-1.3,2.8-2.8,2.8h-7.3c-1.5,0-2.8-1.3-2.8-2.8v-6.8
		c0-1.5,1.3-2.8,2.8-2.8h7.3c1.5,0,2.8,1.3,2.8,2.8V75.9z M162.2,93.4c0,1.5-1.3,2.8-2.8,2.8h-7.3c-1.5,0-2.8-1.3-2.8-2.8v-6.8
		c0-1.5,1.3-2.8,2.8-2.8h7.3c1.5,0,2.8,1.3,2.8,2.8V93.4z"/>
</g>
</svg>
