<?xml version="1.0" encoding="utf-8"?>
<!-- Generator: Adobe Illustrator 19.0.0, SVG Export Plug-In . SVG Version: 6.00 Build 0)  -->
<svg version="1.1" id="图层_1" xmlns="http://www.w3.org/2000/svg" xmlns:xlink="http://www.w3.org/1999/xlink" x="0px" y="0px"
	 viewBox="0 0 200 200" style="enable-background:new 0 0 200 200;" xml:space="preserve">
<style type="text/css">
	.st0{fill:#FFFFFF;}
</style>
<g id="XMLID_679_">
	<path id="XMLID_687_" class="st0" d="M39.1,86.5V160c0,2.7,1.8,5.1,4.5,5.9l19.5,5.3c1.3,0.4,2.6-0.6,2.6-2v-76
		c0-0.5-0.3-0.9-0.7-1l-24.5-6.7C39.8,85.3,39.1,85.8,39.1,86.5z"/>
	<path id="XMLID_686_" class="st0" d="M73.6,95.9v76.7c0,0.9,0.6,1.7,1.5,2l25.9,6.9c1.3,0.3,2.6-0.6,2.6-2v-76c0-0.5-0.3-0.9-0.7-1
		L75,94.9C74.3,94.7,73.6,95.2,73.6,95.9z"/>
	<path id="XMLID_685_" class="st0" d="M176.5,160V86.5c0-0.7-0.6-1.2-1.3-1l-24.9,6.9c-0.4,0.1-0.7,0.5-0.7,1v75.9
		c0,1.3,1.3,2.3,2.6,2l19.9-5.4C174.7,165.1,176.5,162.7,176.5,160z"/>
	<path id="XMLID_684_" class="st0" d="M111.7,103.5v76.2c0,1.3,1.3,2.3,2.6,2l26.5-7.4c0.9-0.2,1.5-1,1.5-2V95.8
		c0-0.7-0.6-1.2-1.3-1l-28.5,7.7C112,102.6,111.7,103,111.7,103.5z"/>
	<path id="XMLID_680_" class="st0" d="M67.8,72l-25.1,6.9c-1,0.3-1,1.7,0,2l23,6.2c0.2,0,0.4,0,0.5,0l26.9-7.3
		c4.5,1.8,8.4,3.5,11.3,4.8l-20.3,5.5c-1,0.3-1,1.7,0,2l23.2,6.3c0.2,0,0.4,0,0.5,0l25.1-6.8c1-0.3,1-1.7,0-2l-14.2-3.8
		c5.5-0.7,12.9-1.7,19.6-2.6l12.7,3.4v0.1l21.6-5.8c1-0.3,1-1.7,0-2l-7.9-2.2c8.1-3.2,14.5-7.4,17.2-13.2c2.1-4.5,3.2-15.8-4.7-21.1
		c-5.4-3.6-12.8,4.3-8.8,7.3c3.5,2.6,4.2,6.8,3.2,9c-2,4.4-10.2,7.9-20.6,10.4c-1.7,0.4-3.4,0.8-5.2,1.1c4.1-2.6,7.3-6.2,9.3-10.5
		c1-2.1,1.7-4.5,1.9-6.8c1.1-9.8-3.6-17.9-11.5-20.9c-3.1-1.2-6.1-1.8-9.1-1.8c-12.2,0-20.6,9.4-26.2,19.9c-3.4-8.7-8-17.2-13-22.5
		c-5.7-6-13.1-9.4-20.3-9.4c-4,0-7.8,1-11.4,3.1c-8,4.5-11.3,12.1-9,20.7c1.6,6,5.8,12.4,11.4,18.2c-13-2.7-26.4-3.4-36.4,1
		c-7.5,3.3-13.2,8.2-15,16.9c-1.3,6.5,9.5,7.3,10.9,3.3c1.6-4.6,4.2-7.8,8.6-9.8c7.6-3.3,18.8-2.6,30.2-0.2 M67.6,39.1
		c-1-3.7,0-5.9,3.6-7.8c1.8-1,3.8-1.6,5.8-1.6c4,0,8.5,2.2,12,5.9c6,6.4,10.7,17.7,13.4,26.9l-10.7,3C81,58.3,69.8,47.6,67.6,39.1z
		 M129.8,67.3l-12.9-3.8c4.2-10.7,10.8-21.8,19.6-21.8c1.6,0,3.2,0.3,5,1c3.5,1.4,4.2,5,4.3,6.5c0.3,3.4-1,7.9-6,12
		C136.3,64,133,65.9,129.8,67.3z"/>
</g>
</svg>
