<?xml version="1.0" encoding="utf-8"?>
<!-- Generator: Adobe Illustrator 19.0.0, SVG Export Plug-In . SVG Version: 6.00 Build 0)  -->
<svg version="1.1" id="图层_1" xmlns="http://www.w3.org/2000/svg" xmlns:xlink="http://www.w3.org/1999/xlink" x="0px" y="0px"
	 viewBox="0 0 200 200" style="enable-background:new 0 0 200 200;" xml:space="preserve">
<style type="text/css">
	.st0{fill:#FFFFFF;}
</style>
<g id="XMLID_545_">
	<g id="XMLID_553_">
		<path id="XMLID_563_" class="st0" d="M110.3,160.8l-64-64l9.9,86.6c0.2,1.6,1.7,2.8,3.3,2.6l50-5.7c1.6-0.2,2.8-1.7,2.6-3.3
			L110.3,160.8z"/>
	</g>
	<path id="XMLID_548_" class="st0" d="M179.7,127.2l-87.1-87h-16C75.3,25.5,62.9,14,47.9,14c-1.3,0-2.6,0.1-4,0.3
		C31.3,16,21.1,26.2,19.4,38.9c-2.2,16.7,10,31.2,25.9,32.6v16.1l87.3,87.3c0.7,0.7,1.7,1.1,2.6,1.1c0.9,0,1.9-0.4,2.6-1.1
		l41.9-41.9C181.3,131.3,181.3,128.8,179.7,127.2z M56.6,40.2c-6.3,0-11.3,5.1-11.3,11.3v14.6c-11.8-1.3-20.9-11.2-20.9-23.3
		c0-13,10.6-23.6,23.6-23.6c12.1,0,22,9.2,23.3,20.9H56.6V40.2z M97.2,113.1l21-21l3.8,3.7l-21,21L97.2,113.1z M112.9,128.8l21-21
		l3.8,3.8l-21,21L112.9,128.8z M132.3,148.2l-3.8-3.7l21-21l3.8,3.8L132.3,148.2z"/>
</g>
</svg>
