<?xml version="1.0" encoding="utf-8"?>
<!-- Generator: Adobe Illustrator 19.0.0, SVG Export Plug-In . SVG Version: 6.00 Build 0)  -->
<svg version="1.1" id="图层_1" xmlns="http://www.w3.org/2000/svg" xmlns:xlink="http://www.w3.org/1999/xlink" x="0px" y="0px"
	 viewBox="0 0 200 200" style="enable-background:new 0 0 200 200;" xml:space="preserve">
<style type="text/css">
	.st0{fill:#FFFFFF;}
</style>
<g id="XMLID_429_">
	<path id="XMLID_453_" class="st0" d="M53.2,168.6L36,151.5c-0.6-0.6-0.2-1.6,0.7-1.6h17.1c0.5,0,0.9,0.4,0.9,0.9v17.1
		C54.8,168.7,53.8,169.2,53.2,168.6z"/>
	<path id="XMLID_431_" class="st0" d="M77.8,47.4c-1.7,1.7-1.7,4.4,0,6.1c1.7,1.7,4.4,1.7,6.1,0s1.7-4.4,0-6.1
		C82.2,45.8,79.5,45.8,77.8,47.4z"/>
	<g id="XMLID_432_">
		<path id="XMLID_433_" class="st0" d="M148.2,120.3c-0.3-0.6-0.8-1.2-1.4-1.6c-0.6-0.4-1.4-0.6-2.4-0.6s-1.9,0.2-2.6,0.6
			c-0.7,0.4-1.4,0.9-1.9,1.6s-0.9,1.4-1.2,2.2c-0.3,0.8-0.5,1.7-0.6,2.6s-0.1,1.7,0,2.6c0.1,0.9,0.3,1.6,0.7,2.3s0.8,1.2,1.5,1.6
			c0.6,0.4,1.4,0.6,2.3,0.6c1,0,1.9-0.2,2.6-0.6c0.7-0.4,1.3-0.9,1.8-1.6c0.5-0.7,0.9-1.4,1.2-2.3c0.3-0.9,0.5-1.7,0.6-2.7
			c0.1-0.9,0.2-1.8,0.1-2.6C148.8,121.7,148.6,121,148.2,120.3z"/>
		<path id="XMLID_628_" class="st0" d="M161.6,29.7H38.4c-2.2,0-4,1.8-4,4V139c0,2.1,1.7,3.8,3.8,3.8h19.9c2.1,0,3.8,1.7,3.8,3.8
			v19.9c0,2.1,1.7,3.8,3.8,3.8h96.1c2.1,0,3.8-1.7,3.8-3.8V33.7C165.6,31.5,163.8,29.7,161.6,29.7z M62.7,125.2
			c-0.3,2-0.8,3.8-1.5,5.2c-0.7,1.5-1.6,2.7-2.6,3.6c-1,0.9-2.1,1.6-3.2,2.1c-1.1,0.5-2.3,0.7-3.4,0.7c-1.6,0-3-0.3-4.3-0.8
			c-1.2-0.5-2.1-1.4-2.6-2.6H45l-0.4,2.8h-4.4c-0.7,0-1.3-0.6-1.2-1.3l3.7-28.2c0.1-0.6,0.6-1,1.2-1h3.7c0.7,0,1.3,0.6,1.2,1.3
			l-1.3,9.8h0.1c0.9-1.1,2-2,3.3-2.5s2.7-0.8,4.1-0.8c1.1,0,2.2,0.2,3.2,0.7s1.9,1.2,2.7,2.1c0.7,0.9,1.3,2.1,1.6,3.6
			C62.9,121.5,62.9,123.2,62.7,125.2z M79.4,119.2c-1.1,0-2.1,0.2-2.9,0.6s-1.5,0.9-2.1,1.5s-1,1.4-1.3,2.2
			c-0.3,0.9-0.5,1.8-0.7,2.8l-1.2,8.9c-0.1,0.6-0.6,1-1.2,1h-3.7c-0.7,0-1.3-0.6-1.2-1.3l2.6-19.8c0.1-0.6,0.6-1,1.2-1h3.4
			c0.7,0,1.3,0.6,1.2,1.3l-0.4,2.8h0.1c0.4-0.7,0.8-1.3,1.4-1.9s1.2-1.1,1.9-1.5c0.7-0.4,1.4-0.7,2.1-1c0.7-0.2,1.5-0.3,2.3-0.3
			c0.4,0,0.8,0.1,1.3,0.2l-0.7,5.6c-0.3-0.1-0.6-0.1-1-0.1C80.1,119.3,79.7,119.2,79.4,119.2z M103.7,119.9l-1.5,11.5
			c-0.1,1-0.2,2-0.2,2.9s0.1,1.6,0.3,2.1h-6.2c-0.1-0.3-0.1-0.7-0.1-1c0-0.4,0-0.7,0-1.1c-1.1,1-2.3,1.7-3.7,2.1
			c-1.4,0.4-2.7,0.6-4.1,0.6c-1.1,0-2-0.1-2.9-0.4c-0.9-0.3-1.6-0.7-2.2-1.2s-1.1-1.2-1.3-2.1c-0.3-0.8-0.3-1.8-0.2-3
			c0.2-1.3,0.5-2.3,1.1-3.1c0.5-0.8,1.2-1.5,2-1.9c0.8-0.5,1.6-0.8,2.5-1.1c0.9-0.2,1.9-0.4,2.8-0.6c0.9-0.1,1.8-0.3,2.7-0.3
			c0.9-0.1,1.7-0.2,2.4-0.4c0.7-0.2,1.3-0.4,1.7-0.7c0.4-0.3,0.7-0.8,0.7-1.4c0.1-0.7,0-1.2-0.1-1.6c-0.2-0.4-0.4-0.7-0.7-0.9
			c-0.3-0.2-0.7-0.4-1.2-0.4c-0.5-0.1-1-0.1-1.5-0.1c-1.2,0-2.2,0.3-2.9,0.8c-0.6,0.4-1,1-1.3,1.7c-0.2,0.5-0.6,0.8-1.1,0.8h-5.2
			c0.3-1.4,0.8-2.6,1.5-3.5s1.6-1.7,2.7-2.3c1-0.6,2.2-1,3.4-1.2c1.2-0.2,2.5-0.4,3.7-0.4c1.1,0,2.2,0.1,3.3,0.2
			c1.1,0.2,2.1,0.5,3,0.9c0.9,0.5,1.6,1.1,2.1,1.9C103.7,117.5,103.9,118.5,103.7,119.9z M128.8,122.7l-1.7,12.6
			c-0.1,0.6-0.6,1-1.2,1h-3.7c-0.7,0-1.3-0.6-1.2-1.3l1.5-11.2c0.2-1.8,0.1-3.2-0.3-4.1c-0.5-0.9-1.4-1.3-2.9-1.3
			c-1.7,0-2.9,0.5-3.8,1.5s-1.5,2.6-1.8,4.9l-1.4,10.6c-0.1,0.6-0.6,1-1.2,1h-3.7c-0.7,0-1.3-0.6-1.2-1.3l2.6-19.8
			c0.1-0.6,0.6-1,1.2-1h4.7l-0.4,3.1h0.1c0.9-1.3,2.1-2.2,3.4-2.8c1.3-0.6,2.6-0.9,3.9-0.9c1.6,0,2.9,0.2,3.9,0.7s1.7,1.1,2.2,1.8
			c0.5,0.8,0.8,1.7,0.9,2.9C129,120.1,128.9,121.3,128.8,122.7z M108.4,101.4c-0.8,0.8-2,0.8-2.8,0L73.5,69.3
			c-0.8-0.8-1.5-2.3-1.6-3.4l-1.5-17.4c-0.1-1.1,0.5-2.6,1.2-3.4l4-4c0.8-0.8,2.3-1.3,3.4-1.2l17.4,1.6c1.1,0.1,2.6,0.8,3.4,1.6
			l32.1,32.1c0.8,0.8,0.8,2,0,2.8L108.4,101.4z M153.3,135.3c-0.1,0.6-0.6,1-1.2,1h-4.7l0.4-2.8h-0.1c-0.9,1.2-1.9,2.1-3.1,2.6
			c-1.2,0.5-2.6,0.8-4,0.8c-1.7,0-3.1-0.3-4.2-1c-1.2-0.6-2.1-1.5-2.8-2.6s-1.1-2.4-1.3-3.8c-0.2-1.4-0.2-2.9,0-4.4s0.6-2.9,1.2-4.3
			c0.6-1.4,1.4-2.6,2.3-3.7c1-1.1,2.1-1.9,3.4-2.5c1.3-0.6,2.8-1,4.4-1c1.3,0,2.5,0.3,3.6,0.8c1.1,0.6,1.9,1.4,2.5,2.5h0.1l1.3-10.1
			c0.1-0.6,0.6-1,1.2-1h3.7c0.7,0,1.3,0.6,1.2,1.3L153.3,135.3z"/>
		<path id="XMLID_634_" class="st0" d="M94.6,126.3c-0.5,0.1-0.9,0.2-1.4,0.2c-0.5,0.1-1,0.1-1.5,0.2s-0.9,0.2-1.4,0.3
			c-0.5,0.1-0.9,0.3-1.2,0.6c-0.4,0.2-0.7,0.5-0.9,0.9c-0.2,0.4-0.4,0.8-0.5,1.4c-0.1,0.5,0,1,0.1,1.4s0.4,0.7,0.7,0.9
			c0.3,0.2,0.7,0.4,1.1,0.4c0.4,0.1,0.9,0.1,1.4,0.1c1.2,0,2.1-0.2,2.9-0.6c0.7-0.4,1.3-0.9,1.6-1.4c0.4-0.6,0.7-1.1,0.8-1.7
			c0.1-0.6,0.2-1,0.3-1.4l0.3-2.3c-0.3,0.2-0.6,0.4-1,0.5C95.4,126.1,95,126.3,94.6,126.3z"/>
		<path id="XMLID_636_" class="st0" d="M56,120.3c-0.3-0.7-0.8-1.2-1.4-1.6c-0.6-0.4-1.3-0.6-2.3-0.6c-0.9,0-1.7,0.2-2.4,0.6
			s-1.3,0.9-1.8,1.6s-0.9,1.4-1.2,2.3s-0.5,1.8-0.7,2.7c-0.1,0.9-0.1,1.8-0.1,2.7c0.1,0.9,0.3,1.6,0.6,2.3s0.8,1.2,1.4,1.6
			c0.6,0.4,1.3,0.6,2.2,0.6s1.7-0.2,2.4-0.6c0.7-0.4,1.3-0.9,1.8-1.6c0.5-0.7,0.9-1.4,1.2-2.3c0.3-0.9,0.5-1.7,0.6-2.7
			c0.1-0.9,0.1-1.8,0.1-2.7C56.6,121.7,56.3,121,56,120.3z"/>
	</g>
</g>
</svg>
