<?xml version="1.0" encoding="utf-8"?>
<!-- Generator: Adobe Illustrator 19.0.0, SVG Export Plug-In . SVG Version: 6.00 Build 0)  -->
<svg version="1.1" id="图层_1" xmlns="http://www.w3.org/2000/svg" xmlns:xlink="http://www.w3.org/1999/xlink" x="0px" y="0px"
	 viewBox="0 0 200 200" style="enable-background:new 0 0 200 200;" xml:space="preserve">
<style type="text/css">
	.st0{fill:#FFFFFF;}
</style>
<g id="XMLID_676_">
	<path id="XMLID_748_" class="st0" d="M105.8,11c-17.7,0-32,14.3-32,32c0,0.6,0.1,1.2,0.1,1.8h6.5c0-0.4,0-0.7,0-1.1
		c0-14.1,11.4-25.5,25.5-25.5s25.5,11.4,25.5,25.5c0,0.4,0,0.7,0,1.1h6.5c0-0.6,0.1-1.2,0.1-1.8C137.9,25.4,123.5,11,105.8,11z"/>
	<path id="XMLID_247_" class="st0" d="M162.7,167.2c-0.6-5.3-9.5-94-11.4-112.4c-0.2-1.9-1.8-3.3-3.7-3.3H63.8
		c-1.9,0-3.5,1.4-3.7,3.3C58.3,72.9,49.6,158.6,49,165c-0.7,7.1,4.8,12.4,10.1,12.4s87.4,0,93.3,0S163.4,173.2,162.7,167.2z
		 M105.8,142.5c-17.5,0-31.8-14.3-31.8-31.8c0-1.5,1.2-2.8,2.8-2.8s2.8,1.2,2.8,2.8c0,14.4,11.7,26.2,26.2,26.2s26.2-11.7,26.2-26.2
		c0-1.5,1.2-2.8,2.8-2.8s2.8,1.2,2.8,2.8C137.6,128.3,123.3,142.5,105.8,142.5z"/>
</g>
</svg>
