<?xml version="1.0" encoding="utf-8"?>
<!-- Generator: Adobe Illustrator 19.0.0, SVG Export Plug-In . SVG Version: 6.00 Build 0)  -->
<svg version="1.1" id="图层_1" xmlns="http://www.w3.org/2000/svg" xmlns:xlink="http://www.w3.org/1999/xlink" x="0px" y="0px"
	 viewBox="0 0 200 200" style="enable-background:new 0 0 200 200;" xml:space="preserve">
<style type="text/css">
	.st0{fill:#FFFFFF;}
</style>
<g id="XMLID_54_">
	<g id="XMLID_1476_">
		<rect id="XMLID_1484_" x="170.8" y="41.2" class="st0" width="4.2" height="111.6"/>
		<rect id="XMLID_1483_" x="182.6" y="41.2" class="st0" width="7.9" height="111.6"/>
	</g>
	<g id="XMLID_1573_">
		<path id="XMLID_1582_" class="st0" d="M96,160.4c-1-1-2.6-1-3.6,0l-6.8-6.8c10-13.5,8.9-32.6-3.3-44.9
			c-13.4-13.4-35.3-13.4-48.7,0s-13.4,35.3,0,48.7c12.2,12.2,31.4,13.3,44.9,3.3l6.8,6.8c-1,1-1,2.6,0,3.6L96.1,182
			c0.5,0.5,1.1,0.7,1.8,0.7c0.7,0,1.3-0.3,1.8-0.7l7.2-7.2c1-1,1-2.6,0-3.6L96,160.4z M70.5,145.7c-6.9,6.9-18.2,6.9-25.2,0
			c-6.9-6.9-6.9-18.2,0-25.2c6.9-6.9,18.2-6.9,25.2,0C77.5,127.5,77.5,138.8,70.5,145.7z"/>
		<path id="XMLID_1569_" class="st0" d="M30.1,105.3c1.4-1.4,2.9-2.7,4.5-3.8V41.2H9.5v111.6h14.3c-3.4-5.9-5.2-12.6-5.2-19.6
			C18.6,122.6,22.7,112.7,30.1,105.3z"/>
		<rect id="XMLID_1568_" x="103.1" y="41.2" class="st0" width="21.7" height="111.6"/>
		<rect id="XMLID_1567_" x="149.2" y="41.2" class="st0" width="14.7" height="111.6"/>
		<path id="XMLID_1566_" class="st0" d="M56,41.2H42.5v55.7c4.2-1.8,8.8-2.8,13.4-3L56,41.2L56,41.2z"/>
		<path id="XMLID_1565_" class="st0" d="M95,152.8V146c-0.8,2.3-1.8,4.6-3,6.7h3V152.8z"/>
		<path id="XMLID_1564_" class="st0" d="M95,120.4V41.2H81.6v60.5c1.5,1.1,2.9,2.3,4.2,3.6C90.1,109.6,93.2,114.8,95,120.4z"/>
		<path id="XMLID_1563_" class="st0" d="M73.4,41.2h-9.5v53.1c3.3,0.5,6.5,1.4,9.5,2.6V41.2z"/>
		<rect id="XMLID_1562_" x="132.7" y="41.2" class="st0" width="9.5" height="111.6"/>
	</g>
</g>
</svg>
