<?xml version="1.0" encoding="utf-8"?>
<!-- Generator: Adobe Illustrator 19.0.0, SVG Export Plug-In . SVG Version: 6.00 Build 0)  -->
<svg version="1.1" id="图层_1" xmlns="http://www.w3.org/2000/svg" xmlns:xlink="http://www.w3.org/1999/xlink" x="0px" y="0px"
	 viewBox="0 0 200 200" style="enable-background:new 0 0 200 200;" xml:space="preserve">
<style type="text/css">
	.st0{fill:#FFFFFF;}
</style>
<g id="XMLID_57_">
	<g id="XMLID_910_">
		<path id="XMLID_41_" class="st0" d="M26.9,97.2l-3.5-7.1c-0.2-0.5,0-1,0.4-1.2l4.1-2V71.5c0-0.6,0.1-1.2,0.2-1.7L11.4,78
			c-1.8,0.9-2.6,3.1-1.7,4.9l18.1,36.5V97.6C27.4,97.7,27,97.5,26.9,97.2z"/>
		<path id="XMLID_77_" class="st0" d="M129.5,36.5c0.5-0.2,1,0,1.2,0.4l3.5,7.1c0.2,0.5,0,1-0.4,1.2l-30.9,15.3h49.8l-19.3-38.9
			c-0.9-1.8-3.1-2.6-4.9-1.7L46.6,60.5H81L129.5,36.5z"/>
	</g>
	<g id="XMLID_35_">
		<g id="XMLID_79_">
			<path id="XMLID_80_" class="st0" d="M108.3,92.4c-0.3-0.4-0.6-0.8-1-1c-0.4-0.3-0.9-0.4-1.6-0.4c-0.6,0-1.2,0.1-1.6,0.4
				s-0.8,0.6-1,1c-0.3,0.4-0.4,0.9-0.6,1.4c-0.1,0.5-0.2,1.1-0.2,1.7s0.1,1.1,0.2,1.7c0.1,0.5,0.3,1,0.6,1.4c0.3,0.4,0.6,0.7,1,1
				s1,0.4,1.6,0.4s1.2-0.1,1.6-0.4s0.8-0.6,1-1c0.3-0.4,0.4-0.9,0.6-1.4c0.1-0.5,0.2-1.1,0.2-1.7s-0.1-1.1-0.2-1.7
				C108.8,93.4,108.6,92.9,108.3,92.4z"/>
			<path id="XMLID_100_" class="st0" d="M124.8,92.4c-0.3-0.4-0.6-0.8-1.1-1c-0.4-0.3-1-0.4-1.6-0.4c-0.7,0-1.2,0.1-1.6,0.4
				s-0.8,0.6-1,1c-0.3,0.4-0.4,0.9-0.6,1.4c-0.1,0.5-0.2,1.1-0.2,1.7s0.1,1.1,0.2,1.6s0.3,1,0.6,1.4c0.3,0.4,0.6,0.8,1,1
				c0.4,0.3,1,0.4,1.6,0.4c0.7,0,1.2-0.1,1.6-0.4s0.8-0.6,1.1-1c0.3-0.4,0.4-0.9,0.6-1.4c0.1-0.5,0.2-1.1,0.2-1.6
				c0-0.6-0.1-1.1-0.2-1.7C125.3,93.3,125.1,92.9,124.8,92.4z"/>
			<path id="XMLID_101_" class="st0" d="M75.4,92.4c-0.3-0.4-0.6-0.8-1.1-1c-0.4-0.3-1-0.4-1.6-0.4c-0.7,0-1.2,0.1-1.6,0.4
				s-0.8,0.6-1,1c-0.3,0.4-0.4,0.9-0.6,1.4c-0.1,0.5-0.2,1.1-0.2,1.7s0.1,1.1,0.2,1.6s0.3,1,0.6,1.4c0.3,0.4,0.6,0.8,1,1
				c0.4,0.3,1,0.4,1.6,0.4c0.7,0,1.2-0.1,1.6-0.4s0.8-0.6,1.1-1c0.3-0.4,0.4-0.9,0.6-1.4c0.1-0.5,0.2-1.1,0.2-1.6
				c0-0.6-0.1-1.1-0.2-1.7C75.9,93.3,75.7,92.9,75.4,92.4z"/>
			<path id="XMLID_65_" class="st0" d="M75.4,92.4c-0.3-0.4-0.6-0.8-1.1-1c-0.4-0.3-1-0.4-1.6-0.4c-0.7,0-1.2,0.1-1.6,0.4
				s-0.8,0.6-1,1c-0.3,0.4-0.4,0.9-0.6,1.4c-0.1,0.5-0.2,1.1-0.2,1.7s0.1,1.1,0.2,1.6s0.3,1,0.6,1.4c0.3,0.4,0.6,0.8,1,1
				c0.4,0.3,1,0.4,1.6,0.4c0.7,0,1.2-0.1,1.6-0.4s0.8-0.6,1.1-1c0.3-0.4,0.4-0.9,0.6-1.4c0.1-0.5,0.2-1.1,0.2-1.6
				c0-0.6-0.1-1.1-0.2-1.7C75.9,93.3,75.7,92.9,75.4,92.4z"/>
			<path id="XMLID_58_" class="st0" d="M108.3,92.4c-0.3-0.4-0.6-0.8-1-1c-0.4-0.3-0.9-0.4-1.6-0.4c-0.6,0-1.2,0.1-1.6,0.4
				s-0.8,0.6-1,1c-0.3,0.4-0.4,0.9-0.6,1.4c-0.1,0.5-0.2,1.1-0.2,1.7s0.1,1.1,0.2,1.7c0.1,0.5,0.3,1,0.6,1.4c0.3,0.4,0.6,0.7,1,1
				s1,0.4,1.6,0.4s1.2-0.1,1.6-0.4s0.8-0.6,1-1c0.3-0.4,0.4-0.9,0.6-1.4c0.1-0.5,0.2-1.1,0.2-1.7s-0.1-1.1-0.2-1.7
				C108.8,93.4,108.6,92.9,108.3,92.4z"/>
			<path id="XMLID_84_" class="st0" d="M124.8,92.4c-0.3-0.4-0.6-0.8-1.1-1c-0.4-0.3-1-0.4-1.6-0.4c-0.7,0-1.2,0.1-1.6,0.4
				s-0.8,0.6-1,1c-0.3,0.4-0.4,0.9-0.6,1.4c-0.1,0.5-0.2,1.1-0.2,1.7s0.1,1.1,0.2,1.6s0.3,1,0.6,1.4c0.3,0.4,0.6,0.8,1,1
				c0.4,0.3,1,0.4,1.6,0.4c0.7,0,1.2-0.1,1.6-0.4s0.8-0.6,1.1-1c0.3-0.4,0.4-0.9,0.6-1.4c0.1-0.5,0.2-1.1,0.2-1.6
				c0-0.6-0.1-1.1-0.2-1.7C125.3,93.3,125.1,92.9,124.8,92.4z"/>
		</g>
		<path id="XMLID_66_" class="st0" d="M186,67.8H38.8c-2,0-3.7,1.6-3.7,3.7v95.3c0,2,1.6,3.7,3.7,3.7H186c2,0,3.7-1.6,3.7-3.7V71.5
			C189.7,69.5,188,67.8,186,67.8z M155.4,97.2c-0.8-0.3-1.8-0.6-3.2-0.9c-0.6-0.1-1.1-0.3-1.6-0.4c-0.5-0.2-1-0.4-1.4-0.7
			c-0.4-0.3-0.8-0.6-1-1.1c-0.3-0.4-0.4-0.9-0.4-1.6c0-0.9,0.2-1.6,0.5-2.2c0.4-0.6,0.8-1,1.4-1.4c0.6-0.3,1.2-0.6,2-0.7
			c0.7-0.1,1.5-0.2,2.2-0.2c0.8,0,1.5,0.1,2.2,0.2s1.4,0.4,1.9,0.7c0.6,0.3,1,0.8,1.4,1.4s0.6,1.3,0.7,2.2h-3.7
			c-0.1-0.7-0.3-1.2-0.8-1.5s-1.1-0.4-1.8-0.4c-0.2,0-0.5,0-0.7,0c-0.3,0-0.5,0.1-0.7,0.2s-0.4,0.2-0.5,0.4
			c-0.1,0.2-0.2,0.4-0.2,0.7c0,0.3,0.1,0.6,0.4,0.8c0.3,0.2,0.6,0.4,1,0.5s0.9,0.3,1.4,0.4s1.1,0.2,1.6,0.4c0.6,0.1,1.1,0.3,1.6,0.5
			s1,0.4,1.4,0.7c0.4,0.3,0.8,0.7,1,1.1c0.3,0.4,0.4,1,0.4,1.6c0,0.9-0.2,1.7-0.6,2.3c-0.4,0.6-0.9,1.1-1.5,1.5s-1.3,0.6-2.1,0.8
			c-0.8,0.2-1.6,0.2-2.4,0.2c-0.8,0-1.6-0.1-2.4-0.2c-0.8-0.2-1.5-0.4-2.1-0.8s-1.1-0.9-1.5-1.5s-0.6-1.4-0.6-2.4h3.7
			c0,0.4,0.1,0.8,0.3,1.1c0.2,0.3,0.4,0.5,0.7,0.7s0.6,0.3,0.9,0.4c0.4,0.1,0.7,0.1,1.1,0.1c0.3,0,0.6,0,0.9-0.1
			c0.3-0.1,0.6-0.2,0.8-0.3c0.2-0.1,0.4-0.3,0.6-0.5c0.2-0.2,0.2-0.5,0.2-0.9C156.5,98,156.1,97.5,155.4,97.2z M131.9,88.5h3.7v2
			h0.1c0.5-0.8,1.1-1.4,1.9-1.8c0.8-0.4,1.6-0.6,2.4-0.6c1,0,1.9,0.1,2.5,0.4c0.7,0.3,1.2,0.7,1.6,1.2c0.4,0.5,0.6,1.1,0.8,1.8
			c0.2,0.7,0.2,1.5,0.2,2.4v8.7h-3.9v-7.9c0-1.2-0.2-2-0.5-2.6c-0.4-0.6-1-0.9-1.9-0.9c-1.1,0-1.8,0.3-2.3,0.9s-0.7,1.7-0.7,3.1v7.4
			h-3.9L131.9,88.5L131.9,88.5z M115.4,92.5c0.3-0.9,0.8-1.7,1.5-2.3c0.6-0.6,1.4-1.1,2.3-1.5s1.9-0.5,3-0.5s2.1,0.2,3,0.5
			c0.9,0.4,1.7,0.9,2.3,1.5c0.6,0.6,1.1,1.4,1.5,2.3c0.3,0.9,0.5,1.9,0.5,3.1c0,1.1-0.2,2.1-0.5,3s-0.8,1.7-1.5,2.3
			c-0.6,0.6-1.4,1.1-2.3,1.5c-0.9,0.3-1.9,0.5-3,0.5s-2.1-0.2-3-0.5s-1.7-0.8-2.3-1.5c-0.6-0.6-1.1-1.4-1.5-2.3
			c-0.3-0.9-0.5-1.9-0.5-3C114.8,94.4,115,93.4,115.4,92.5z M98.6,88.5h3.7v1.8h0.1c0.5-0.8,1.1-1.3,1.8-1.7
			c0.7-0.3,1.5-0.5,2.4-0.5c1.1,0,2.1,0.2,2.9,0.6s1.5,1,2,1.7s0.9,1.5,1.2,2.4c0.3,0.9,0.4,1.9,0.4,2.9c0,0.9-0.1,1.8-0.4,2.7
			c-0.3,0.9-0.6,1.6-1.2,2.3c-0.5,0.7-1.2,1.2-1.9,1.6c-0.8,0.4-1.7,0.6-2.7,0.6c-0.9,0-1.7-0.2-2.4-0.5c-0.7-0.4-1.3-0.9-1.8-1.6
			h-0.1v6.7h-3.9L98.6,88.5L98.6,88.5z M82.5,88.5h3.9v7.9c0,1.2,0.2,2,0.5,2.6c0.4,0.6,1,0.9,1.9,0.9c1.1,0,1.8-0.3,2.3-0.9
			s0.7-1.7,0.7-3.1v-7.4h3.9v14.1H92v-2l0,0c-0.5,0.8-1.1,1.4-1.9,1.8s-1.6,0.5-2.4,0.5c-1,0-1.9-0.1-2.5-0.4
			c-0.7-0.3-1.2-0.7-1.6-1.2s-0.6-1.1-0.8-1.8c-0.2-0.7-0.2-1.5-0.2-2.4L82.5,88.5L82.5,88.5z M66,92.5c0.3-0.9,0.8-1.7,1.5-2.3
			c0.6-0.6,1.4-1.1,2.3-1.5s1.9-0.5,3-0.5s2.1,0.2,3,0.5c0.9,0.4,1.7,0.9,2.3,1.5c0.6,0.6,1.1,1.4,1.5,2.3c0.3,0.9,0.5,1.9,0.5,3.1
			c0,1.1-0.2,2.1-0.5,3s-0.8,1.7-1.5,2.3c-0.6,0.6-1.4,1.1-2.3,1.5c-0.9,0.3-1.9,0.5-3,0.5s-2.1-0.2-3-0.5s-1.7-0.8-2.3-1.5
			c-0.6-0.6-1.1-1.4-1.5-2.3c-0.3-0.9-0.5-1.9-0.5-3C65.5,94.4,65.6,93.4,66,92.5z M45.3,92.9c0-1.5,0.2-2.8,0.7-4
			c0.4-1.2,1.1-2.3,1.9-3.3c0.8-0.9,1.8-1.7,3-2.2s2.5-0.8,4-0.8c1.1,0,2.1,0.2,3,0.5c1,0.3,1.8,0.8,2.6,1.3
			c0.8,0.6,1.4,1.3,1.9,2.2c0.5,0.9,0.8,1.9,0.9,3h-4.1c-0.1-0.5-0.2-0.9-0.5-1.3s-0.6-0.8-1-1.1c-0.4-0.3-0.8-0.5-1.3-0.7
			s-1-0.3-1.5-0.3c-1,0-1.8,0.2-2.4,0.6c-0.7,0.4-1.2,0.9-1.6,1.5c-0.4,0.6-0.7,1.3-0.9,2.1c-0.2,0.8-0.3,1.6-0.3,2.5
			c0,0.8,0.1,1.6,0.3,2.4s0.5,1.5,0.9,2.1s1,1.1,1.6,1.5c0.7,0.4,1.5,0.6,2.4,0.6c1.3,0,2.3-0.4,3.1-1.2c0.7-0.8,1.2-1.9,1.3-3.2
			h4.1c-0.1,1.2-0.4,2.3-0.8,3.3c-0.5,1-1.1,1.8-1.8,2.5s-1.6,1.2-2.6,1.6s-2.1,0.5-3.3,0.5c-1.5,0-2.8-0.3-4-0.8s-2.2-1.2-3-2.1
			s-1.4-2-1.9-3.2C45.5,95.7,45.3,94.3,45.3,92.9z M116.9,158.4c0,0.5-0.4,0.9-0.9,0.9H47.9c-0.5,0-0.9-0.4-0.9-0.9v-7.9
			c0-0.5,0.4-0.9,0.9-0.9H116c0.5,0,0.9,0.4,0.9,0.9V158.4z M166.8,139.6c0,0.5-0.4,0.9-0.9,0.9h-118c-0.5,0-0.9-0.4-0.9-0.9v-7.9
			c0-0.5,0.4-0.9,0.9-0.9h118c0.5,0,0.9,0.4,0.9,0.9V139.6z"/>
	</g>
</g>
</svg>
