<?xml version="1.0" encoding="utf-8"?>
<!-- Generator: Adobe Illustrator 19.0.0, SVG Export Plug-In . SVG Version: 6.00 Build 0)  -->
<svg version="1.1" id="图层_1" xmlns="http://www.w3.org/2000/svg" xmlns:xlink="http://www.w3.org/1999/xlink" x="0px" y="0px"
	 viewBox="0 0 200 200" style="enable-background:new 0 0 200 200;" xml:space="preserve">
<style type="text/css">
	.st0{fill:#FFFFFF;}
</style>
<g id="XMLID_94_">
	<g id="XMLID_907_">
		<g id="XMLID_96_">
			<path id="XMLID_99_" class="st0" d="M66.9,118.3L55.1,103c-1.2-1.6-2.1-2.5-2.6-2.8s-1-0.2-1.6,0.2c-0.5,0.4-0.7,0.8-0.6,1.3
				c0,0.5,0.7,1.7,2,3.4l12,15.6c1.5,1.9,2.5,3.1,3,3.4s1.1,0.3,1.6-0.2c0.6-0.5,0.8-1,0.5-1.7C69.3,121.6,68.5,120.3,66.9,118.3z"
				/>
			<polygon id="XMLID_104_" class="st0" points="92,71.4 94.4,74.5 96.2,68.2 			"/>
			<polygon id="XMLID_115_" class="st0" points="84,97.9 86.7,101.3 88.7,94.2 			"/>
		</g>
		<path id="XMLID_106_" class="st0" d="M18.8,104.8c0.2,0.2,0.4,0.3,0.6,0.6c0.8,1.1,0.7,2.5-0.1,3.5l1.2,1.6
			c1.2-0.6,2.6-0.3,3.4,0.8c0.8,1.1,0.7,2.5-0.1,3.5l1.2,1.6c1.2-0.6,2.6-0.3,3.4,0.8c0.8,1.1,0.7,2.5-0.1,3.5l1.2,1.6
			c1.2-0.6,2.6-0.3,3.4,0.8s0.7,2.5-0.1,3.5l1.2,1.6c1.2-0.6,2.6-0.3,3.4,0.8c0.8,1.1,0.7,2.5-0.1,3.5l1.2,1.6
			c1.2-0.6,2.6-0.3,3.4,0.8c0.8,1.1,0.7,2.5-0.1,3.5L43,140c1.2-0.6,2.6-0.3,3.4,0.8c0.8,1.1,0.7,2.5-0.1,3.5l1.2,1.6
			c1.2-0.6,2.6-0.3,3.4,0.8c0.8,1.1,0.7,2.5-0.1,3.5l1.2,1.6c1.2-0.6,2.6-0.3,3.4,0.8c0.8,1.1,0.7,2.5-0.1,3.5l1.2,1.6
			c1.2-0.6,2.6-0.3,3.4,0.8c0.5,0.6,0.6,1.3,0.6,2l11.8-9.1L82.7,115L60.4,85.2L76.1,73l5.2,6.7l-7,5.5l4.9,6.3l6.4-4.9l4,5.1
			l1.2-4.2l-12.6-16l15.7-12.2l3.5,4.6l7.4-25.7L18.8,104.8z M62,94.5c1.2,1.2,3.2,3.6,5.8,7l4.4,5.7c2.6,3.3,4.3,5.8,5.3,7.3
			c0.9,1.5,1.4,3.2,1.5,5s-0.4,3.5-1.3,5.3c-0.9,1.7-2.3,3.3-4.2,4.7c-1.8,1.4-3.6,2.3-5.5,2.8s-3.7,0.5-5.5,0
			c-1.8-0.5-3.3-1.4-4.5-2.6c-1.2-1.2-3.2-3.6-5.8-7l-4.4-5.7c-2.6-3.3-4.3-5.8-5.3-7.3c-0.9-1.5-1.4-3.2-1.5-5s0.4-3.5,1.3-5.3
			c0.9-1.7,2.3-3.3,4.2-4.7c1.8-1.4,3.6-2.3,5.5-2.8s3.7-0.5,5.5,0C59.3,92.4,60.8,93.3,62,94.5z"/>
	</g>
	<g id="XMLID_924_">
		<path id="XMLID_97_" class="st0" d="M129.1,148.2c-0.6-0.4-2.2-1-4.7-1.7l-19.6-5.6c-2-0.6-3.3-0.8-3.9-0.8
			c-0.6,0.1-1,0.4-1.2,1.1c-0.2,0.6-0.1,1.1,0.3,1.5s1.6,1,3.8,1.6l19.9,5.7c2.5,0.7,4,1,4.7,1c0.6,0,1.1-0.4,1.3-1.2
			C129.9,149.2,129.8,148.6,129.1,148.2z"/>
		<g id="XMLID_102_">
			<path id="XMLID_103_" class="st0" d="M135.6,73.1l5.7,1.6c0.6,0.2,1,0.3,1.2,0.2c0.1,0,0.3-0.2,0.3-0.5c0.1-0.2,0-0.4-0.1-0.5
				s-0.5-0.2-1-0.4l-5.8-1.7c-0.6-0.2-1-0.2-1.1-0.2c-0.2,0-0.3,0.2-0.3,0.4c-0.1,0.2,0,0.4,0.1,0.5C134.7,72.8,135,72.9,135.6,73.1
				z"/>
			<path id="XMLID_124_" class="st0" d="M155.5,66.2l-5.7-1.6c-0.6-0.2-1-0.2-1.1-0.2c-0.2,0-0.3,0.2-0.4,0.4
				c-0.1,0.2,0,0.4,0.1,0.5s0.5,0.3,1.1,0.4l5.7,1.6c0.6,0.2,1,0.3,1.2,0.2c0.1,0,0.3-0.2,0.3-0.4c0.1-0.2,0-0.4-0.1-0.5
				C156.4,66.5,156.1,66.4,155.5,66.2z"/>
		</g>
		<path id="XMLID_119_" class="st0" d="M73.5,165.3c1.4,0.4,2.2,1.7,2.1,3l2,0.6c0.6-1.2,2-1.8,3.4-1.5c1.4,0.4,2.2,1.7,2.1,3l2,0.6
			c0.6-1.2,2-1.8,3.4-1.5c1.4,0.4,2.2,1.7,2.1,3l2,0.6c0.6-1.2,2-1.8,3.4-1.5c1.4,0.4,2.2,1.7,2.1,3l2,0.6c0.6-1.2,2-1.8,3.4-1.5
			c1.4,0.4,2.2,1.7,2.1,3l2,0.6c0.6-1.2,2-1.8,3.4-1.5c1.4,0.4,2.2,1.7,2.1,3l2,0.6c0.6-1.2,2-1.8,3.4-1.5c1.4,0.4,2.2,1.7,2.1,3
			l2,0.6c0.6-1.2,2-1.8,3.4-1.5s2.2,1.7,2.1,3l2,0.6c0.6-1.2,2-1.8,3.4-1.5c1.4,0.4,2.2,1.7,2.1,3l2,0.6c0.6-1.2,2-1.8,3.4-1.5
			c0.7,0.2,1.3,0.7,1.7,1.3l38.1-132.7l-12.2-33l-30.1-8.6l-27.8,21.5L72.6,165.2C72.9,165.2,73.2,165.2,73.5,165.3z M157.8,63.4
			c0.5,0.3,0.8,0.9,1,1.6s0.1,1.6-0.1,2.6c-0.3,1.2-0.8,2-1.3,2.5s-1.1,0.8-1.7,0.9c-0.6,0.1-1.3,0-2.2-0.3l-4-1.2
			c-1.1-0.3-1.9-0.7-2.3-1c-0.5-0.4-0.8-0.9-0.9-1.7c-0.2-0.7-0.1-1.6,0.2-2.5c0.3-1.1,0.7-1.9,1.3-2.4s1.1-0.9,1.7-0.9
			c0.6-0.1,1.4,0,2.5,0.4l3.9,1.1C156.6,62.7,157.4,63,157.8,63.4z M145.4,27.9c0.7-2.3,3.1-3.7,5.4-3c2.3,0.7,3.7,3.1,3,5.4
			s-3.1,3.7-5.4,3S144.8,30.2,145.4,27.9z M135.6,60.9l20.8,15.5l-0.6,2.1L135,63L135.6,60.9z M132.5,71.6c0.3-1.1,0.7-1.9,1.3-2.4
			c0.6-0.6,1.1-0.9,1.7-0.9c0.6-0.1,1.4,0,2.5,0.4l3.9,1.1c1,0.3,1.7,0.6,2.2,0.9c0.4,0.3,0.8,0.9,1,1.6s0.1,1.6-0.1,2.6
			c-0.3,1.2-0.8,2-1.3,2.5s-1.1,0.8-1.6,0.9c-0.6,0.1-1.3,0-2.2-0.3l-4-1.2c-1.1-0.3-1.9-0.7-2.4-1c-0.5-0.4-0.8-0.9-0.9-1.7
			C132.1,73.4,132.2,72.6,132.5,71.6z M110.6,79.5l8.5,2.5l-2.6,9l8.1,2.3l2.4-8.2l8.1,2.3l-2.4,8.2l17.9,5.2l-3.2,11.1l-42.7-12.3
			L110.6,79.5z M104,102.3l8.5,2.5l-2.6,9l8.1,2.3l2.4-8.2l8.1,2.3l-2.4,8.2l17.9,5.2l-3.2,11.1l-42.7-12.3L104,102.3z M92.5,139.2
			c0.7-2.3,1.6-4.2,2.9-5.8s2.8-2.7,4.6-3.4c1.8-0.7,3.6-0.9,5.4-0.6c1.8,0.3,4.9,1.1,9.3,2.3l7.3,2.1c4.3,1.2,7.3,2.2,9,2.9
			s3.2,1.8,4.3,3.3c1.2,1.5,1.9,3.3,2.2,5.3s0.1,4.3-0.6,6.7c-0.7,2.3-1.6,4.2-2.9,5.8c-1.3,1.6-2.8,2.7-4.6,3.4s-3.6,0.9-5.4,0.6
			c-1.8-0.3-4.9-1.1-9.3-2.3l-7.3-2.1c-4.3-1.2-7.3-2.2-9-2.9s-3.2-1.8-4.3-3.3c-1.2-1.5-1.9-3.3-2.2-5.3
			C91.6,143.8,91.8,141.6,92.5,139.2z"/>
	</g>
</g>
</svg>
