<?xml version="1.0" encoding="utf-8"?>
<!-- Generator: Adobe Illustrator 19.0.0, SVG Export Plug-In . SVG Version: 6.00 Build 0)  -->
<svg version="1.1" id="图层_1" xmlns="http://www.w3.org/2000/svg" xmlns:xlink="http://www.w3.org/1999/xlink" x="0px" y="0px"
	 viewBox="0 0 200 200" style="enable-background:new 0 0 200 200;" xml:space="preserve">
<style type="text/css">
	.st0{fill:#FFFFFF;}
</style>
<g id="XMLID_564_">
	<polygon id="XMLID_580_" class="st0" points="167.8,56.5 126.6,70.2 126.6,72.8 126.6,167.6 167.8,153.9 	"/>
	<g id="XMLID_565_">
		<g id="XMLID_566_">
			<path id="XMLID_32_" class="st0" d="M66.6,59.1L25.7,72.8v97.4l41.6-13.9v-2.4V61.2C67,60.5,66.8,59.8,66.6,59.1z"/>
			<g id="XMLID_36_">
				<path id="XMLID_329_" class="st0" d="M103.9,111.1l-7.1,14.1l-7.1-14.1c-2.5-5-10.3-20.7-17.1-36.7V156l48.8,12.2V73.4
					C114.5,89.8,106.4,106,103.9,111.1z"/>
			</g>
			<path id="XMLID_40_" class="st0" d="M97.3,12c-0.1,0-0.3,0-0.4,0h-0.1c0,0,0,0-0.1,0s-0.3,0-0.4,0c-14.8,0-26.8,12.2-26.8,26.8
				s27.3,68.7,27.3,68.7s27.3-54.1,27.3-68.7C124.1,24.2,112.1,12,97.3,12z M96.7,48.7c-6.8,0-12.3-5.5-12.3-12.3
				s5.5-12.3,12.3-12.3S109,29.6,109,36.4S103.5,48.7,96.7,48.7z"/>
		</g>
	</g>
</g>
</svg>
