<?xml version="1.0" encoding="utf-8"?>
<!-- Generator: Adobe Illustrator 19.0.0, SVG Export Plug-In . SVG Version: 6.00 Build 0)  -->
<svg version="1.1" id="图层_1" xmlns="http://www.w3.org/2000/svg" xmlns:xlink="http://www.w3.org/1999/xlink" x="0px" y="0px"
	 viewBox="0 0 200 200" style="enable-background:new 0 0 200 200;" xml:space="preserve">
<style type="text/css">
	.st0{fill:#FFFFFF;}
</style>
<g id="XMLID_347_">
	<polygon id="XMLID_819_" class="st0" points="79.2,44.7 98.7,52.8 98.7,52.8 79.2,44.8 	"/>
	<path id="XMLID_8_" class="st0" d="M127.8,52.9L72.2,30L16.6,52.9V170l55.6-22.9l55.6,22.9l55.6-22.9V30L127.8,52.9z M173.4,141.5
		l-45.6,18.8l-41.7-17.2l-13.9-5.7l0,0l-45.6,18.8V58.5l45.6-18.8l0,0l6.6,2.7l0,0L98,50.3l12.4,5.1l17.4,7.2l45.6-18.8V141.5z"/>
	<ellipse id="XMLID_830_" class="st0" cx="44.4" cy="84.7" rx="3" ry="3.3"/>
	<ellipse id="XMLID_827_" class="st0" cx="102.3" cy="92.2" rx="3" ry="3.2"/>
	<g id="XMLID_823_">
		<path id="XMLID_10_" class="st0" d="M160.2,93.6l11-6.8V60l-11.6,8.5c-0.5,0.4-0.8,1-0.8,1.6l0.7,11.5c0.1,1.1-0.9,2.1-2.2,2.1
			h-1.6c-1,0-1.8,0.5-2.1,1.3l-3.5,9.2c-0.2,0.6-0.7,1-1.3,1.2l-11.6,4c-0.8,0.3-1.7,0.1-2.3-0.4l-7.1-5.9l-5.2,3.2
			c-0.6,0.4-1.4,0.4-2,0.2l-5.9-1.9c-0.9-0.3-1.5-1.1-1.4-2l0.7-8.4c0.1-0.9,0.9-1.7,2-1.8l11.9-1.2l0,0l11.1-5.9
			c0.6-0.3,1-0.8,1.1-1.4l2.1-15L128,64.7l0,0l-3.2,6.4c-0.8,1.5-2.6,2.5-4.5,2.3l-6.2-0.5c-0.9-0.1-1.8,0.1-2.5,0.5l-3.9,1.9
			c-1.9,0.9-4.2,0.5-5.6-1l-8.3-8.9c-1.2-1.3-1.3-3.1-0.4-4.5l5.5-8.1l0,0l-19.5-8l0,0l3.4,22.6c0.2,1.4,1,2.7,2.1,3.6l8.3,6.6
			c2.1,1.7,2.8,4.5,1.6,6.8l-6.9,13.4c-0.7,1.4-2.1,2.5-3.7,3.1l-11.8,3.9l-7.6-3.9c-2.7-1.4-4.4-4-4.4-6.8V82c0-1.6-1.1-3-2.8-3.6
			L45,73.9c-4.3-1.6-6.5-5.8-5.1-9.7l4-10.6l-15.1,6.2V135l8-24.9c0.4-1.1,1.2-2,2.4-2.5l10-4.2c2.1-0.9,4.6-0.2,5.8,1.6l5.2,8.1
			c1.6,2.5,3.6,4.8,6,6.8l6,5.1l12-3.4c3.8-1.1,7.9-0.8,11.5,0.7l2.1,0.9c2.3,1,5.1,0,6.1-2.1l5.7-12.6c1.1-2.4,4.5-3.2,6.9-1.6
			l0.6,0.4c1.2,0.8,1.9,2.2,1.7,3.5l-1.3,11.3c-0.1,0.8,0.1,1.6,0.5,2.3l9.8,15.7l0,0l6.3,3.6c3.1,1.8,7,2,10.4,0.7l7.1-2.7
			c0.9-0.3,1.9-0.1,2.6,0.5l3.5,3.6l13.5-5.5V140l-10.4-8.3c-1.4-1.1-1.8-2.8-1.2-4.3l4.3-9.9c1-2.3,1-4.8,0-7l-5.3-12.2
			C157.9,96.5,158.5,94.6,160.2,93.6z M44.4,101c0,0-6.8-10.3-6.8-16.1c0-4.1,3.1-7.3,6.8-7.3c3.8,0,6.8,3.3,6.8,7.3
			C51.2,91.1,44.4,101,44.4,101z M102.3,108.2c0,0-6.8-10.1-6.8-15.8c0-4,3.1-7.2,6.8-7.2c3.8,0,6.8,3.2,6.8,7.2
			C109.1,98.5,102.3,108.2,102.3,108.2z M140.2,141.4c0,0-6.8-10.1-6.8-15.8c0-4,3.1-7.2,6.8-7.2c3.8,0,6.8,3.2,6.8,7.2
			C147.1,131.6,140.2,141.4,140.2,141.4z M157.1,112.3l-1.5,6.3c-0.3,1.4-1.9,2.2-3.4,1.7l-7.8-2.6c-1.1-0.4-1.8-1.3-1.7-2.3
			l1.1-9.7c0.2-1.8,2.6-2.7,4.2-1.6l8.2,5.9C156.9,110.6,157.3,111.5,157.1,112.3z"/>
		<ellipse id="XMLID_824_" class="st0" cx="140.2" cy="125.3" rx="3" ry="3.2"/>
	</g>
</g>
</svg>
