<?xml version="1.0" encoding="utf-8"?>
<!-- Generator: Adobe Illustrator 19.0.0, SVG Export Plug-In . SVG Version: 6.00 Build 0)  -->
<svg version="1.1" id="图层_1" xmlns="http://www.w3.org/2000/svg" xmlns:xlink="http://www.w3.org/1999/xlink" x="0px" y="0px"
	 viewBox="0 0 200 200" style="enable-background:new 0 0 200 200;" xml:space="preserve">
<style type="text/css">
	.st0{fill:#FFFFFF;}
</style>
<g id="XMLID_9_">
	<g id="XMLID_76_">
		<path id="XMLID_77_" class="st0" d="M176.3,156.6l-22.1-22.1c-1.8-1.8-4.8-1.8-6.6,0L137.1,124c18.5-24.9,16.5-60.3-6.1-82.8
			c-24.8-24.8-65.2-24.8-90,0s-24.8,65.2,0,90c22.6,22.6,57.9,24.5,82.9,6.1l10.5,10.5c-1.8,1.8-1.8,4.8,0,6.6l22.1,22.1
			c0.9,0.9,2.1,1.4,3.3,1.4s2.4-0.5,3.3-1.4l13.3-13.3C178.1,161.4,178.1,158.4,176.3,156.6z M115.3,115.5
			c-16.1,16.2-42.4,16.2-58.6,0s-16.2-42.4,0-58.6c16.1-16.1,42.4-16.1,58.6,0C131.4,73,131.4,99.3,115.3,115.5z M85.6,98.4
			c-1.3,0-2.5,0.4-3.4,1.2c-0.9,0.8-1.4,1.8-1.4,3.1c0,1.2,0.5,2.2,1.4,3c0.9,0.9,2.2,1.3,3.7,1.3c1.2,0,2.3-0.4,3.1-1.2
			c0.9-0.8,1.3-1.9,1.3-3.1s-0.5-2.3-1.4-3.1C88,98.8,86.9,98.4,85.6,98.4z M94.5,69.4c-2.1-1.7-4.9-2.5-8.6-2.5
			c-3.6,0-6.7,0.8-9.5,2.5v7.8c2.7-2.4,5.5-3.6,8.6-3.6c1.3,0,2.4,0.4,3.2,1.1c0.8,0.8,1.3,1.7,1.3,2.9c0,1.1-0.3,2.1-0.9,3
			s-1.7,2.1-3.4,3.5c-2.7,2.3-4,4.8-4,7.6c0,1.2,0.2,2.3,0.6,3.4h6.8c-0.5-0.9-0.7-1.7-0.7-2.6s0.2-1.8,0.6-2.6
			c0.4-0.8,1.5-2,3.3-3.4c2.2-1.8,3.7-3.4,4.5-4.9s1.2-3.2,1.2-5C97.6,73.5,96.5,71.1,94.5,69.4z M84.9,50.4
			c-7.6,0-14.7,2.3-20.5,6.3c5.2-2.7,11.1-4.2,17.4-4.2c20.9,0,37.8,16.9,37.8,37.8c0,6.3-1.5,12.2-4.2,17.4
			c4-5.9,6.3-12.9,6.3-20.5C121.6,66.8,105.2,50.4,84.9,50.4z"/>
	</g>
</g>
</svg>
