<?xml version="1.0" encoding="utf-8"?>
<!-- Generator: Adobe Illustrator 19.0.0, SVG Export Plug-In . SVG Version: 6.00 Build 0)  -->
<svg version="1.1" id="图层_1" xmlns="http://www.w3.org/2000/svg" xmlns:xlink="http://www.w3.org/1999/xlink" x="0px" y="0px"
	 viewBox="0 0 200 200" style="enable-background:new 0 0 200 200;" xml:space="preserve">
<style type="text/css">
	.st0{fill:#FFFFFF;}
</style>
<g id="XMLID_765_">
	<path id="XMLID_28_" class="st0" d="M126.2,73.6c11.4,0,22.2,4.2,30.6,11.9h1.1c1.2,0,2.2-1,2.2-2.2V61.8c0-1.2-1-2.2-2.2-2.2H20.1
		c-1.2,0-2.2,1-2.2,2.2v21.4c0,1.2,1,2.2,2.2,2.2h75.6C104,77.8,114.8,73.6,126.2,73.6z M40.2,79.3c-1,0.9-2.2,1.4-3.7,1.4
		c-1.4,0-2.5-0.4-3.4-1.2c-0.9-0.8-1.4-1.9-1.5-3.2l1.9-0.3c0.2,1.1,0.6,1.9,1.1,2.3c0.5,0.5,1.2,0.7,1.9,0.7c0.9,0,1.7-0.3,2.3-0.9
		s0.9-1.4,0.9-2.3s-0.3-1.6-0.9-2.2c-0.6-0.6-1.3-0.9-2.2-0.9c-0.4,0-0.8,0.1-1.3,0.2l0.2-1.7c0.1,0,0.2,0,0.3,0
		c0.8,0,1.5-0.2,2.2-0.6c0.6-0.4,1-1.1,1-2c0-0.7-0.2-1.3-0.7-1.7c-0.5-0.5-1.1-0.7-1.8-0.7s-1.4,0.2-1.9,0.7s-0.8,1.2-1,2.1
		l-1.9-0.3c0.2-1.3,0.8-2.3,1.6-3s1.9-1.1,3.1-1.1c0.8,0,1.6,0.2,2.3,0.5c0.7,0.4,1.3,0.9,1.6,1.5c0.4,0.6,0.6,1.3,0.6,2
		s-0.2,1.3-0.5,1.8c-0.4,0.6-0.9,1-1.6,1.3c0.9,0.2,1.6,0.7,2.1,1.3c0.5,0.7,0.8,1.5,0.8,2.5C41.6,77.2,41.1,78.3,40.2,79.3z
		 M53.7,71.5v1.8h-7.3v7.1h-2.1V64.9h10.5v1.8h-8.4v4.8C46.4,71.5,53.7,71.5,53.7,71.5z"/>
	<path id="XMLID_86_" class="st0" d="M81,118.8c0-9,2.6-17.6,7.5-24.9H20.1c-1.2,0-2.2,1-2.2,2.2v21.4c0,1.2,1,2.2,2.2,2.2h61
		C81,119.4,81,119.1,81,118.8z M41.5,114.9H31.2c0-0.5,0.1-0.9,0.2-1.3c0.3-0.7,0.7-1.4,1.3-2.1s1.4-1.5,2.5-2.3
		c1.7-1.4,2.8-2.5,3.4-3.3c0.6-0.8,0.9-1.6,0.9-2.3c0-0.8-0.3-1.4-0.8-1.9s-1.2-0.8-2.1-0.8c-0.9,0-1.7,0.3-2.2,0.8
		c-0.6,0.5-0.8,1.3-0.8,2.3l-2-0.2c0.1-1.5,0.6-2.6,1.5-3.3c0.9-0.8,2.1-1.1,3.5-1.1c1.5,0,2.7,0.4,3.5,1.2c0.9,0.8,1.3,1.8,1.3,3.1
		c0,0.6-0.1,1.2-0.4,1.8c-0.3,0.6-0.7,1.2-1.3,1.9c-0.6,0.7-1.6,1.6-2.9,2.7c-1.1,1-1.9,1.6-2.2,2c-0.3,0.3-0.6,0.7-0.8,1h7.6
		L41.5,114.9L41.5,114.9z M54.9,101.2h-8.4v4.8h7.3v1.8h-7.3v7h-2.1V99.4h10.5V101.2z"/>
	<path id="XMLID_132_" class="st0" d="M94.2,150.8c-6.3-6.3-10.5-14.2-12.3-22.7H20.1c-1.2,0-2.2,1-2.2,2.2v21.4
		c0,1.2,1,2.2,2.2,2.2h77.6C96.5,152.9,95.3,151.9,94.2,150.8z M38.6,149.4h-1.9v-12.1c-0.5,0.4-1.1,0.9-1.8,1.3
		c-0.7,0.4-1.4,0.8-2,1v-1.8c1.1-0.5,2-1.1,2.8-1.8s1.4-1.4,1.7-2.1h1.2V149.4z M54.9,135.7h-8.4v4.8h7.3v1.8h-7.3v7.1h-2.1v-15.5
		h10.5V135.7z"/>
	<path id="XMLID_767_" class="st0" d="M168.8,149.6c-1.1-1.1-2.9-1.1-3.9,0l-8.4-8.4c11-14.8,9.8-35.8-3.6-49.2
		c-14.7-14.7-38.7-14.7-53.5,0c-14.7,14.7-14.7,38.7,0,53.5c13.4,13.4,34.4,14.6,49.2,3.6l8.4,8.4c-1.1,1.1-1.1,2.9,0,3.9l15.6,15.6
		c0.5,0.5,1.2,0.8,2,0.8c0.7,0,1.4-0.3,2-0.8l7.9-7.9c1.1-1.1,1.1-2.9,0-3.9L168.8,149.6z M140,132.6c-7.6,7.6-20,7.6-27.6,0
		c-7.6-7.6-7.6-20,0-27.6s20-7.6,27.6,0C147.6,112.6,147.6,125,140,132.6z"/>
	<g id="XMLID_644_">
		<polygon id="XMLID_645_" class="st0" points="37.6,40.5 37.6,33.5 32.7,40.5 		"/>
		<path id="XMLID_649_" class="st0" d="M157.9,25.4H20.1c-1.2,0-2.2,1-2.2,2.2V49c0,1.2,1,2.2,2.2,2.2H158c1.2,0,2.2-1,2.2-2.2V27.6
			C160.1,26.4,159.1,25.4,157.9,25.4z M41.6,42.2h-2.1v3.7h-1.9v-3.7h-6.7v-1.7L38,30.4h1.6v10.1h2.1L41.6,42.2L41.6,42.2z
			 M54.9,32.2h-8.4V37h7.3v1.8h-7.3v7.1h-2.1V30.4h10.5V32.2z"/>
	</g>
</g>
</svg>
