<?xml version="1.0" encoding="utf-8"?>
<!-- Generator: Adobe Illustrator 19.0.0, SVG Export Plug-In . SVG Version: 6.00 Build 0)  -->
<svg version="1.1" id="图层_1" xmlns="http://www.w3.org/2000/svg" xmlns:xlink="http://www.w3.org/1999/xlink" x="0px" y="0px"
	 viewBox="0 0 200 200" style="enable-background:new 0 0 200 200;" xml:space="preserve">
<style type="text/css">
	.st0{fill:#FFFFFF;}
</style>
<path id="XMLID_772_" class="st0" d="M100,19.3c-46.6,0-84.5,37.8-84.5,84.5c0,28.2,13.9,53.2,35.2,68.6v-16.7
	c0-23.2,16.1-42.6,37.6-47.8c-11-4.6-18.7-15.4-18.7-28c0-16.7,13.6-30.3,30.3-30.3s30.3,13.6,30.3,30.3c0,12.6-7.7,23.4-18.7,28
	c21.6,5.3,37.6,24.7,37.6,47.8v16.7c21.3-15.3,35.2-40.3,35.2-68.6C184.5,57.1,146.6,19.3,100,19.3z"/>
</svg>
