<?xml version="1.0" encoding="utf-8"?>
<!-- Generator: Adobe Illustrator 19.0.0, SVG Export Plug-In . SVG Version: 6.00 Build 0)  -->
<svg version="1.1" id="图层_1" xmlns="http://www.w3.org/2000/svg" xmlns:xlink="http://www.w3.org/1999/xlink" x="0px" y="0px"
	 viewBox="0 0 200 200" style="enable-background:new 0 0 200 200;" xml:space="preserve">
<style type="text/css">
	.st0{fill:#FFFFFF;}
</style>
<g id="XMLID_736_">
	<g id="XMLID_743_">
		<path id="XMLID_744_" class="st0" d="M145.5,111c10.8-4.5,18.3-15.1,18.3-27.5c0-16.4-13.4-29.8-29.8-29.8c-2.9,0-5.7,0.4-8.4,1.2
			c0.8,3.5,1.3,7.1,1.3,10.8c0,12.5-4.9,24.2-13.3,32.9c22.5,12.2,37.1,35.9,37.1,62.4v5.2h31.7V158
			C182.4,135.2,166.7,116.2,145.5,111z"/>
	</g>
	<path id="XMLID_737_" class="st0" d="M17.6,172.4h123.9v-11.3c0-29.1-20.2-53.5-47.3-60.1c13.8-5.8,23.5-19.4,23.5-35.2
		c0-21-17.1-38.1-38.1-38.1S41.5,44.8,41.5,65.8c0,15.8,9.7,29.4,23.5,35.2c-27.1,6.6-47.3,31-47.3,60.1v11.3H17.6z"/>
</g>
</svg>
