<?xml version="1.0" encoding="utf-8"?>
<!-- Generator: Adobe Illustrator 19.0.0, SVG Export Plug-In . SVG Version: 6.00 Build 0)  -->
<svg version="1.1" id="图层_1" xmlns="http://www.w3.org/2000/svg" xmlns:xlink="http://www.w3.org/1999/xlink" x="0px" y="0px"
	 viewBox="0 0 200 200" style="enable-background:new 0 0 200 200;" xml:space="preserve">
<style type="text/css">
	.st0{fill:#FFFFFF;}
</style>
<g id="XMLID_459_">
	<path id="XMLID_461_" class="st0" d="M138,57.5c-0.8-0.5-1.8-0.8-2.9-1c-1.1-0.2-2.2-0.3-3.4-0.3H126c-1.3,0-2.3,1-2.3,2.3v9.4
		c0,1.3,1,2.3,2.3,2.3h5.7c1.2,0,2.3-0.1,3.4-0.3c1.1-0.2,2.1-0.5,2.9-1c0.8-0.5,1.5-1.2,2-2.1s0.8-2.1,0.8-3.6s-0.3-2.7-0.8-3.6
		C139.5,58.7,138.8,58,138,57.5z"/>
	<path id="XMLID_485_" class="st0" d="M165.7,40.3l-22.8-22.8c-0.5-0.5-1.1-0.8-1.8-0.8H36c-1.4,0-2.5,1.1-2.5,2.6V161
		c0,1.4,1.1,2.6,2.5,2.6h72.3v29.1l17.3-8.7l17.3,8.7v-29.1H164c1.4,0,2.6-1.1,2.6-2.6V42.1C166.5,41.4,166.2,40.7,165.7,40.3z
		 M81.2,51.2l-14,42.2C66.9,94.4,66,95,65,95h-8.3c-1,0-1.9-0.6-2.2-1.6L40.9,51.2c-0.5-1.5,0.6-3,2.2-3h5.7c1,0,1.9,0.6,2.2,1.6
		l9.9,31.3H61l10-31.3c0.3-1,1.2-1.6,2.2-1.6H79C80.6,48.2,81.7,49.7,81.2,51.2z M100.4,92.7c0,1.3-1,2.3-2.3,2.3h-5.7
		c-1.3,0-2.3-1-2.3-2.3V50.5c0-1.3,1-2.3,2.3-2.3h5.7c1.3,0,2.3,1,2.3,2.3V92.7z M136.7,183.6l-11.1-5.4l-11.1,5.4v-30.7
		c3.5,1.4,7.2,2.1,11.1,2.1s7.7-0.8,11.1-2.1V183.6z M125.6,148.7c-10.3,0-18.7-8.4-18.7-18.7s8.4-18.7,18.7-18.7
		s18.7,8.4,18.7,18.7S135.9,148.7,125.6,148.7z M149.8,68.8c-0.6,1.8-1.5,3.4-2.8,4.8s-3,2.5-5,3.4c-2.1,0.9-4.5,1.3-7.5,1.3H126
		c-1.3,0-2.3,1-2.3,2.3v12.2c0,1.3-1,2.3-2.3,2.3h-5.7c-1.3,0-2.3-1-2.3-2.3V50.5c0-1.3,1-2.3,2.3-2.3h18.8c2.9,0,5.4,0.4,7.5,1.3
		c2.1,0.9,3.7,2,5,3.4s2.2,3,2.8,4.8s0.9,3.7,0.9,5.6C150.7,65.1,150.4,66.9,149.8,68.8z"/>
</g>
</svg>
