<?xml version="1.0" encoding="utf-8"?>
<!-- Generator: Adobe Illustrator 19.0.0, SVG Export Plug-In . SVG Version: 6.00 Build 0)  -->
<svg version="1.1" id="图层_1" xmlns="http://www.w3.org/2000/svg" xmlns:xlink="http://www.w3.org/1999/xlink" x="0px" y="0px"
	 viewBox="0 0 200 200" style="enable-background:new 0 0 200 200;" xml:space="preserve">
<style type="text/css">
	.st0{fill:#FFFFFF;}
</style>
<g id="XMLID_722_">
	<path id="XMLID_526_" class="st0" d="M175.6,16.4h-45.7c-2.2,0-3.9,1.7-3.9,3.9v159.5c0,2.2,1.7,3.9,3.9,3.9h45.7
		c2.2,0,3.9-1.7,3.9-3.9V20.3C179.5,18.1,177.8,16.4,175.6,16.4z M164.5,160.2H141v-23.5h23.5V160.2z M164.5,126.2H141v-23.5h23.5
		V126.2z M164.5,92.2H141V68.7h23.5V92.2z M164.5,58.2H141V34.7h23.5V58.2z"/>
	<path id="XMLID_519_" class="st0" d="M110.4,52.6h-8.8c-1.1,0-2-0.9-2-2v-12c0-2.2-1.7-3.9-3.9-3.9h-26c-2.2,0-3.9,1.7-3.9,3.9
		v12.1c0,1.1-0.9,2-2,2H24.4c-2.2,0-3.9,1.7-3.9,3.9v123.2c0,2.2,1.7,3.9,3.9,3.9h86c2.2,0,3.9-1.7,3.9-3.9V56.6
		C114.3,54.4,112.6,52.6,110.4,52.6z M62.8,160.2H33.5v-19.6h29.3V160.2z M62.8,127.6H33.5V108h29.3V127.6z M62.8,95.1H33.5V75.6
		h29.3V95.1z M101.6,160.2H72.3v-19.6h29.3C101.6,140.6,101.6,160.2,101.6,160.2z M101.6,127.6H72.3V108h29.3
		C101.6,108,101.6,127.6,101.6,127.6z M101.6,95.1H72.3V75.6h29.3C101.6,75.6,101.6,95.1,101.6,95.1z"/>
</g>
</svg>
