<?xml version="1.0" encoding="utf-8"?>
<!-- Generator: Adobe Illustrator 19.0.0, SVG Export Plug-In . SVG Version: 6.00 Build 0)  -->
<svg version="1.1" id="图层_1" xmlns="http://www.w3.org/2000/svg" xmlns:xlink="http://www.w3.org/1999/xlink" x="0px" y="0px"
	 viewBox="0 0 200 200" style="enable-background:new 0 0 200 200;" xml:space="preserve">
<style type="text/css">
	.st0{fill:#FFFFFF;}
</style>
<path id="XMLID_499_" class="st0" d="M173,52.5H82.9c-2.1,0-3.8-1.7-3.8-3.8V26.6c0-2.1-1.7-3.8-3.8-3.8H27c-2.1,0-3.8,1.7-3.8,3.8
	v146.9c0,2.1,1.7,3.8,3.8,3.8h146c2.1,0,3.8-1.7,3.8-3.8V56.3C176.8,54.2,175.1,52.5,173,52.5z M118,152.5H47.6v-5.9H118V152.5z
	 M147.7,129.4H47.6v-5.9h100.1V129.4z M147.7,106.3H47.6v-5.9h100.1V106.3z M147.7,83.1H47.6v-5.9h100.1V83.1z"/>
</svg>
