<?xml version="1.0" encoding="utf-8"?>
<!-- Generator: Adobe Illustrator 19.0.0, SVG Export Plug-In . SVG Version: 6.00 Build 0)  -->
<svg version="1.1" id="图层_1" xmlns="http://www.w3.org/2000/svg" xmlns:xlink="http://www.w3.org/1999/xlink" x="0px" y="0px"
	 viewBox="0 0 200 200" style="enable-background:new 0 0 200 200;" xml:space="preserve">
<style type="text/css">
	.st0{fill:#FFFFFF;}
</style>
<g id="XMLID_835_">
	<path id="XMLID_554_" class="st0" d="M82.1,77.7H66c-1.1,0-1.9,0.9-1.9,1.9v16.1c0,1.1,0.9,1.9,1.9,1.9h16.1c1.1,0,1.9-0.9,1.9-1.9
		V79.6C84,78.6,83.1,77.7,82.1,77.7z M79.6,92.3c0,0.5-0.4,1-1,1h-9.2c-0.5,0-1-0.4-1-1v-9.2c0-0.5,0.4-1,1-1h9.2c0.5,0,1,0.4,1,1
		V92.3z"/>
	<path id="XMLID_555_" class="st0" d="M82.1,107.6H66c-1.1,0-1.9,0.9-1.9,1.9v16.1c0,1.1,0.9,1.9,1.9,1.9h16.1
		c1.1,0,1.9-0.9,1.9-1.9v-16.1C84,108.4,83.1,107.6,82.1,107.6z M79.6,122.1c0,0.5-0.4,1-1,1h-9.2c-0.5,0-1-0.4-1-1V113
		c0-0.5,0.4-1,1-1h9.2c0.5,0,1,0.4,1,1V122.1z"/>
	<path id="XMLID_327_" class="st0" d="M136.4,82.1H94.9C93.8,82.1,93,83,93,84v7.2c0,1.1,0.9,1.9,1.9,1.9h41.4
		c1.1,0,1.9-0.9,1.9-1.9V84C138.3,83,137.4,82.1,136.4,82.1z"/>
	<path id="XMLID_326_" class="st0" d="M136.4,112H94.9c-1.1,0-1.9,0.9-1.9,1.9v7.2c0,1.1,0.9,1.9,1.9,1.9h41.4
		c1.1,0,1.9-0.9,1.9-1.9v-7.2C138.3,112.8,137.4,112,136.4,112z"/>
	<path id="XMLID_557_" class="st0" d="M82.1,137.3H66c-1.1,0-1.9,0.9-1.9,1.9v16.1c0,1.1,0.9,1.9,1.9,1.9h16.1
		c1.1,0,1.9-0.9,1.9-1.9v-16.1C84,138.2,83.1,137.3,82.1,137.3z M79.6,151.9c0,0.5-0.4,1-1,1h-9.2c-0.5,0-1-0.4-1-1v-9.2
		c0-0.5,0.4-1,1-1h9.2c0.5,0,1,0.4,1,1V151.9z"/>
	<path id="XMLID_322_" class="st0" d="M136.4,141.8H94.9c-1.1,0-1.9,0.9-1.9,1.9v7.2c0,1.1,0.9,1.9,1.9,1.9h41.4
		c1.1,0,1.9-0.9,1.9-1.9v-7.2C138.3,142.6,137.4,141.8,136.4,141.8z"/>
	<path id="XMLID_319_" class="st0" d="M75.7,19.1c-2.1,0-4.1,0.8-5.5,2.3L40.3,51.3c-1.5,1.5-2.3,3.4-2.3,5.5V177
		c0,2.2,1.7,3.9,3.9,3.9h116.2c2.2,0,3.9-1.7,3.9-3.9V23c0-2.2-1.7-3.9-3.9-3.9H75.7z M148.3,171H51.7c-2.2,0-3.9-1.7-3.9-3.9V65.5
		c0-2.2,1.7-3.9,3.9-3.9h22.8c2.2,0,3.9-1.7,3.9-3.9V34.8c0-2.2,1.7-3.9,3.9-3.9h65.9c2.2,0,3.9,1.7,3.9,3.9v132.4
		C152.2,169.3,150.4,171,148.3,171z"/>
</g>
</svg>
