<?xml version="1.0" encoding="utf-8"?>
<!-- Generator: Adobe Illustrator 19.0.0, SVG Export Plug-In . SVG Version: 6.00 Build 0)  -->
<svg version="1.1" id="图层_1" xmlns="http://www.w3.org/2000/svg" xmlns:xlink="http://www.w3.org/1999/xlink" x="0px" y="0px"
	 viewBox="0 0 200 200" style="enable-background:new 0 0 200 200;" xml:space="preserve">
<style type="text/css">
	.st0{fill:#FFFFFF;}
</style>
<g id="XMLID_377_">
	<path id="XMLID_378_" class="st0" d="M90.5,62.6c-5.1,0-8.7,0.3-10.6,0.8v31.7c2.3,0.4,4.8,0.6,8.7,0.6c13.9,0,22.5-6.5,22.5-17.3
		C111,68.5,103.7,62.6,90.5,62.6z"/>
	<path id="XMLID_381_" class="st0" d="M161.1,27.7h-134c-2.1,0-3.8,1.7-3.8,3.8v133.3c0,2.1,1.7,3.8,3.8,3.8h134
		c2.1,0,3.8-1.7,3.8-3.8V31.5C164.9,29.4,163.2,27.7,161.1,27.7z M126.3,103c-8.9,7.6-22.1,11.3-37.6,11.3c-3.4,0-6.5-0.2-8.9-0.6
		v43.5H53.9V46.4c8.1-1.3,19.4-2.2,35.3-2.2c16.1,0,27.6,2.9,35.3,8.8c7.5,5.3,12.3,14.2,12.3,24.7C136.9,88.2,133.3,97.1,126.3,103
		z"/>
</g>
</svg>
