<?xml version="1.0" encoding="utf-8"?>
<!-- Generator: Adobe Illustrator 19.0.0, SVG Export Plug-In . SVG Version: 6.00 Build 0)  -->
<svg version="1.1" id="图层_1" xmlns="http://www.w3.org/2000/svg" xmlns:xlink="http://www.w3.org/1999/xlink" x="0px" y="0px"
	 viewBox="0 0 200 200" style="enable-background:new 0 0 200 200;" xml:space="preserve">
<style type="text/css">
	.st0{fill:#FFFFFF;}
</style>
<g id="XMLID_26_">
	<g id="XMLID_1445_">
		<g id="XMLID_1446_">
			<path id="XMLID_1424_" class="st0" d="M128.3,51c0-1.2,0.9-2.1,2.1-2.1h4.7c1.2,0,2.1,0.9,2.1,2.1v18.2c0,1.2-0.9,2.1-2.1,2.1
				h-4.7c-1.2,0-2.1-0.9-2.1-2.1V51z"/>
			<path id="XMLID_1423_" class="st0" d="M62.8,51c0-1.2,0.9-2.1,2.1-2.1h4.7c1.2,0,2.1,0.9,2.1,2.1v18.2c0,1.2-0.9,2.1-2.1,2.1
				h-4.7c-1.2,0-2.1-0.9-2.1-2.1C62.8,69.2,62.8,51,62.8,51z"/>
		</g>
		<g id="XMLID_1444_">
			<g id="XMLID_1431_">
				<g id="XMLID_1433_">
					<g id="XMLID_390_">
						<path id="XMLID_391_" class="st0" d="M129.2,162.5v7.2c0,1.2,1,2.2,2.2,2.2h1.4L129.2,162.5z"/>
						<path id="XMLID_403_" class="st0" d="M136.3,148.5h-3v23.4h3c1.2,0,2.2-1,2.2-2.2v-19C138.5,149.4,137.5,148.5,136.3,148.5z"
							/>
					</g>
					<g id="XMLID_392_">
						<path id="XMLID_393_" class="st0" d="M66.1,148.5h-3c-1.2,0-2.2,1-2.2,2.2v19c0,1.2,1,2.2,2.2,2.2h3V148.5z"/>
						<path id="XMLID_412_" class="st0" d="M66.6,171.9H68c1.2,0,2.2-1,2.2-2.2v-7.2L66.6,171.9z"/>
					</g>
					<path id="XMLID_427_" class="st0" d="M136.8,76.5c0,0-0.9-27.1-1.7-34.7c-0.3-3.3-2.3-5.4-5.2-5.4H70c-2.9,0-4.9,2.4-5.2,5.4
						c-1.2,11.5-1.7,34.5-1.7,34.5s-1.8,25.2-1.8,52.1c0,27,1.8,50.2,1.8,50.2c0,3,2.4,5.4,5.4,5.4h12.8l1-1.2h35l1,1.2h13
						c3,0,5.4-2.4,5.4-5.4c0,0,1.1-23.9,1.1-48.9C137.9,104.9,136.8,76.5,136.8,76.5z M129.3,76.9l-4.6,19.3H74.9l-4.8-19.3
						C70.1,76.9,129.3,76.9,129.3,76.9z M66.1,76.9l6.2,20.8v18.6h-6.2V76.9z M66.1,173v-24.1v-6.7v-23.1h6.2v23.1v6.7v7.8L66.1,173
						z M70,174.3l5.7-14.9h48.5l5.7,14.9H70z M133.3,142.2v6.7V173l-6.2-16.3v-7.8v-6.7v-23.1h6.2V142.2z M133.3,116.3H127V97.7
						l6.2-20.8v39.4H133.3z"/>
				</g>
			</g>
		</g>
		<g id="XMLID_1428_">
			<path id="XMLID_915_" class="st0" d="M64.5,72.3c0,0-2.9,0.8-3.7,1.1C59.9,73.7,60,74.3,60,75s-0.2,1.4,0.7,1.4s3.7,0,3.7,0
				l1.3-1L64.5,72.3z"/>
		</g>
		<g id="XMLID_1426_">
			<path id="XMLID_914_" class="st0" d="M135.5,72.3c0,0,2.9,0.8,3.7,1.1c0.8,0.2,0.7,0.9,0.7,1.5c0,0.7,0.2,1.4-0.7,1.4
				s-3.7,0-3.7,0l-1.3-1L135.5,72.3z"/>
		</g>
	</g>
	<g id="XMLID_1449_">
		<path id="XMLID_34_" class="st0" d="M31.3,187.8c-3,0-5.4-2.4-5.4-5.4V38.2c0-4.9,2.2-9.5,5.9-12.6L45,13.1c2.2-2.1,5.6-2,7.7,0.2
			c2.1,2.2,2,5.6-0.2,7.7L39.1,33.7c-0.1,0.1-0.2,0.2-0.3,0.3c-1.3,1-2,2.6-2,4.2v144.2C36.7,185.4,34.3,187.8,31.3,187.8z"/>
	</g>
	<g id="XMLID_1447_">
		<path id="XMLID_33_" class="st0" d="M168.7,187.8c-3,0-5.4-2.4-5.4-5.4V38.2c0-1.7-0.7-3.2-2-4.2c-0.1-0.1-0.2-0.2-0.3-0.3
			L147.5,21c-2.2-2.1-2.3-5.5-0.2-7.7s5.5-2.3,7.7-0.2l13.2,12.5c3.8,3.1,5.9,7.7,5.9,12.6v144.2
			C174.2,185.4,171.7,187.8,168.7,187.8z"/>
	</g>
</g>
</svg>
