<?xml version="1.0" encoding="utf-8"?>
<!-- Generator: Adobe Illustrator 19.0.0, SVG Export Plug-In . SVG Version: 6.00 Build 0)  -->
<svg version="1.1" id="图层_1" xmlns="http://www.w3.org/2000/svg" xmlns:xlink="http://www.w3.org/1999/xlink" x="0px" y="0px"
	 viewBox="0 0 200 200" style="enable-background:new 0 0 200 200;" xml:space="preserve">
<style type="text/css">
	.st0{fill:#FFFFFF;}
</style>
<g id="XMLID_715_">
	<path id="XMLID_718_" class="st0" d="M186.1,83.5h-12.2c-6.2-11.2-20.1-34.6-24.7-34.6H80.4c-4.6,0-23.4,23.4-31.2,34.6h-9.4
		c-15.2,0-37.2,8.6-37.2,23.5v13.5c0,4.7,3.1,8.6,7.4,9.9c0.2-16.4,13.6-29.7,30-29.7c16.5,0,30,13.5,30,30c0,0.1,0,0.1,0,0.2h59.1
		c0-0.1,0-0.1,0-0.2c0-16.5,13.5-30,30-30s30,13.4,30,30c4.7-1,8.3-5.2,8.3-10.2V96.7C197.4,89,191.8,83.5,186.1,83.5z M144.9,57.4
		c3.7,0,8.8,11.9,16.1,24.2h-42.6V57.4H144.9z M84,57.4h26.6v24.2H63.1C71.4,70.9,80.4,57.4,84,57.4z"/>
	<circle id="XMLID_717_" class="st0" cx="40" cy="129.4" r="20"/>
	<circle id="XMLID_716_" class="st0" cx="159.1" cy="129.4" r="20"/>
</g>
</svg>
