<?xml version="1.0" encoding="utf-8"?>
<!-- Generator: Adobe Illustrator 19.0.0, SVG Export Plug-In . SVG Version: 6.00 Build 0)  -->
<svg version="1.1" id="图层_1" xmlns="http://www.w3.org/2000/svg" xmlns:xlink="http://www.w3.org/1999/xlink" x="0px" y="0px"
	 viewBox="0 0 200 200" style="enable-background:new 0 0 200 200;" xml:space="preserve">
<style type="text/css">
	.st0{fill:#FFFFFF;}
</style>
<g id="XMLID_593_">
	<g id="XMLID_603_">
		<path id="XMLID_606_" class="st0" d="M188.7,115.3c5.2,27.4-12.8,53.8-40.2,59c-19.3,3.7-38.1-4.3-49.4-18.8
			c-2.7,1.1-5.5,2-8.4,2.8c12.9,18.5,35.8,28.7,59.4,24.3c32-6.1,53-36.9,46.9-68.9c-5.3-27.9-29.5-47.5-56.8-48
			c1,2.8,1.8,5.7,2.4,8.6C164.9,75.9,184.3,92.2,188.7,115.3z"/>
		<path id="XMLID_605_" class="st0" d="M143.2,77.7c0.6,3.7,0.9,7.4,0.9,11.3c0,1.4-0.1,2.8-0.1,4.2c3.9,0.1,7.7,0.7,8,2.1
			c0,0.3,0,0.3,0,0.8l-1.2,8c-0.1,0.2-0.3,0.8-0.7,0.9s-3.7-1-7.5-1.6c-0.8,3.7-1.8,7.3-3.1,10.7l1.2,6.4
			c5.9,1.4,16.7,2.6,18.9,14.3c2.5,13.1-8.4,19-12.4,19.9l0.8,4.4c0.3,1.5,0.1,1.8-1.5,2.1l-1.8,0.3c-1.6,0.3-1.9,0.1-2.2-1.4
			l-0.8-4.4c-2.6,0.3-14.4,0.5-14.9-2.5c-0.1-0.4,0-0.6,0.1-1l1.6-6.6c0.1-0.5,0.3-0.8,0.7-0.9c0.5-0.1,7,2.4,10.8,1.6l-3.1-16.4
			c-1.4-0.4-3.1-0.8-4.8-1.3c-7.4,11-17.7,19.9-29.8,25.4c10.6,13.2,27.9,20.3,45.7,17c25.6-4.9,42.4-29.6,37.6-55.2
			C181.4,94.6,163.7,79.5,143.2,77.7z"/>
		<path id="XMLID_604_" class="st0" d="M149.5,137.5c-0.9-4.8-5.3-5.9-7.5-6.4l2.7,14.5C146.5,144.8,150.5,142.7,149.5,137.5z"/>
	</g>
	<path id="XMLID_600_" class="st0" d="M69.6,19.4C32,19.4,1.5,49.9,1.5,87.5s30.5,68.1,68.1,68.1s68.1-30.5,68.1-68.1
		S107.2,19.4,69.6,19.4z M69.6,145.8c-32.2,0-58.3-26.1-58.3-58.3s26.1-58.3,58.3-58.3s58.3,26.1,58.3,58.3S101.8,145.8,69.6,145.8z
		"/>
	<path id="XMLID_598_" class="st0" d="M60.5,70.7c0,5.6,4.8,7.8,7.1,8.9v-17C65.5,63,60.5,64.5,60.5,70.7z"/>
	<path id="XMLID_595_" class="st0" d="M69.6,32.8C39.4,32.9,15.1,57.3,15,87.4c0.1,30.1,24.4,54.5,54.6,54.6
		c30.1-0.1,54.5-24.4,54.6-54.6C124.1,57.3,99.7,32.9,69.6,32.8z M73.3,123.5v4.7c0,1.8-0.3,2.1-2.2,2.1H69c-1.9,0-2.2-0.3-2.2-2.1
		v-4.7c-3.6,0-18.2-2.4-18.2-5.5c0-0.3,0-0.3,0.2-0.9l3-8.8c0.1-0.2,0.5-0.8,0.9-0.8c0.6,0,7.6,4.1,14,4.8V91.8
		c-6.4-2.8-18.4-6.5-18.4-20.3c0-15.4,13.6-19.8,18.4-20v-5.1c0-1.8,0.3-2.1,2.2-2.1H71c1.9,0,2.2,0.3,2.2,2.1v5.1
		c3,0.2,16.4,2.5,16.4,6.1c0,0.4-0.1,0.7-0.3,1.2l-3.2,7.1c-0.2,0.5-0.5,0.8-0.9,0.8c-0.6,0-7.4-4.2-11.9-4.2v19.3
		c6.8,3.3,18.3,7.8,18.3,21.2C91.6,117.6,80.2,122.4,73.3,123.5z"/>
	<path id="XMLID_594_" class="st0" d="M72.6,94.2v18.1c3-0.8,7-2.8,7-8.6C79.6,97.6,75,95.4,72.6,94.2z"/>
</g>
</svg>
