<?xml version="1.0" encoding="utf-8"?>
<!-- Generator: Adobe Illustrator 19.0.0, SVG Export Plug-In . SVG Version: 6.00 Build 0)  -->
<svg version="1.1" id="图层_1" xmlns="http://www.w3.org/2000/svg" xmlns:xlink="http://www.w3.org/1999/xlink" x="0px" y="0px"
	 viewBox="0 0 200 200" style="enable-background:new 0 0 200 200;" xml:space="preserve">
<style type="text/css">
	.st0{fill:#FFFFFF;}
</style>
<g id="XMLID_652_">
	<g id="XMLID_141_">
		<path id="XMLID_147_" class="st0" d="M63.1,150.1c-0.4-0.1-1.1-0.1-2,0.1l1.8,3.8c0.2-0.1,0.4-0.3,0.7-0.5
			c0.2-0.2,0.4-0.4,0.5-0.7s0.2-0.5,0.2-0.8s0-0.6-0.2-0.9C63.9,150.5,63.6,150.2,63.1,150.1z"/>
		<path id="XMLID_156_" class="st0" d="M60.8,113.8l-4.6,5.5c0.4,0.2,0.8,0.5,1.3,0.6c0.5,0.2,1,0.3,1.5,0.3s1-0.1,1.4-0.2
			c0.5-0.2,0.9-0.5,1.3-1c0.6-0.8,0.8-1.5,0.7-2.3C62.2,116.1,61.7,115.1,60.8,113.8z"/>
		<path id="XMLID_167_" class="st0" d="M64.5,102.3c-0.4,0-0.8,0.1-1.2,0.3c-0.4,0.2-0.8,0.5-1.1,0.9c-0.5,0.6-0.7,1.3-0.6,2
			c0.1,0.7,0.6,1.5,1.3,2.5l3.9-4.7c-0.3-0.3-0.7-0.5-1.1-0.6C65.3,102.3,64.9,102.3,64.5,102.3z"/>
		<path id="XMLID_172_" class="st0" d="M56.3,144.8c-0.2,0.2-0.3,0.4-0.4,0.6c-0.1,0.2-0.2,0.5-0.2,0.7c0,0.3,0.1,0.5,0.2,0.8
			c0.2,0.4,0.5,0.7,0.9,0.8s0.9,0.1,1.6-0.1l-1.5-3.2C56.7,144.5,56.5,144.7,56.3,144.8z"/>
		<path id="XMLID_211_" class="st0" d="M84.3,67.2c-0.9-0.5-2.3-1-4.3-1.2l1.1,9.3c0.6-0.1,1.2-0.3,1.8-0.6c0.6-0.3,1.1-0.7,1.6-1.1
			s0.8-1,1.1-1.6c0.3-0.6,0.3-1.3,0.2-2.1C85.6,68.6,85.1,67.7,84.3,67.2z"/>
		<path id="XMLID_213_" class="st0" d="M73.7,51.2c-0.5,0.2-0.9,0.5-1.3,0.9s-0.7,0.8-0.8,1.4c-0.2,0.5-0.2,1.1-0.1,1.8
			c0.1,1.1,0.6,1.8,1.3,2.3c0.7,0.5,1.9,0.8,3.5,1l-1-7.9C74.7,50.8,74.2,50.9,73.7,51.2z"/>
	</g>
	<g id="XMLID_171_">
		<path id="XMLID_584_" class="st0" d="M100,22.4c-42.9,0-77.6,34.7-77.6,77.6s34.7,77.6,77.6,77.6s77.6-34.7,77.6-77.6
			S142.9,22.4,100,22.4z M65,52.3c0.5-1.3,1.2-2.5,2.1-3.5s2-1.8,3.3-2.4c1.3-0.6,2.7-1.1,4.1-1.4l-0.3-2.9l2.9-0.3l0.3,2.9
			c1.5,0,2.9,0.1,4.2,0.4c1.3,0.3,2.5,0.8,3.6,1.5s2,1.6,2.7,2.8c0.8,1.2,1.3,2.6,1.6,4.2l-6.9,0.8c-0.2-1.3-0.7-2.3-1.6-3.1
			s-1.9-1.1-3-1l1,8.6c0.4,0,0.8,0.1,1.2,0.1c0.4,0,0.9,0.1,1.3,0.2c2.5,0.4,4.4,0.9,5.8,1.7s2.5,1.7,3.2,2.6c0.7,1,1.2,1.9,1.5,3
			c0.2,1,0.4,1.9,0.5,2.7c0.1,0.7,0,1.6-0.2,2.7s-0.7,2.3-1.5,3.4s-1.9,2.2-3.4,3.2c-1.4,1-3.4,1.7-5.8,2.2L82,84l-2.9,0.3L79,81.2
			c-3.6,0.2-6.6-0.6-8.9-2.3c-2.3-1.7-3.8-4.5-4.6-8.2l6.8-0.8c0.2,1.8,0.9,3.2,2,4.2c1.1,0.9,2.5,1.5,4,1.6l-1.2-10.1
			c-0.2,0-0.4-0.1-0.7-0.1c-0.3,0-0.6-0.1-0.9-0.1c-1.2-0.2-2.5-0.4-3.7-0.7c-1.2-0.3-2.3-0.7-3.3-1.4c-1-0.6-1.8-1.4-2.5-2.4
			s-1.1-2.3-1.3-3.9C64.4,55.1,64.6,53.7,65,52.3z M67.2,152.7c-0.2,0.6-0.5,1.2-1,1.8s-1.2,1.2-2.2,1.8l0.6,1.3l-1.2,0.6l-0.6-1.3
			c-1.5,0.6-2.9,0.7-4.1,0.3c-1.2-0.4-2.3-1.4-3.1-2.9l2.8-1.3c0.3,0.8,0.8,1.3,1.4,1.5c0.6,0.2,1.3,0.3,1.9,0.1l-2-4.1
			c-0.1,0-0.2,0-0.3,0s-0.3,0-0.4,0.1c-0.6,0.1-1.1,0.2-1.7,0.2c-0.6,0-1.1,0-1.6-0.1s-1-0.3-1.4-0.7c-0.4-0.3-0.8-0.8-1.1-1.5
			s-0.5-1.3-0.5-2c0-0.6,0.1-1.2,0.4-1.8c0.3-0.5,0.6-1.1,1.1-1.5c0.5-0.5,1-0.8,1.6-1.2l-0.6-1.2l1.2-0.6l0.6,1.2
			c0.6-0.2,1.2-0.4,1.9-0.4c0.6-0.1,1.2,0,1.8,0.1s1.1,0.4,1.6,0.8c0.5,0.4,0.9,0.9,1.3,1.6l-2.8,1.3c-0.3-0.5-0.6-0.9-1.1-1.1
			c-0.5-0.2-1-0.2-1.4,0l1.7,3.5c0.2,0,0.4-0.1,0.5-0.1c0.2,0,0.4-0.1,0.6-0.1c1.1-0.2,2-0.2,2.7-0.1c0.7,0.1,1.3,0.4,1.7,0.7
			c0.5,0.3,0.8,0.7,1,1.1c0.2,0.4,0.4,0.8,0.6,1.1c0.1,0.3,0.2,0.7,0.3,1.2C67.4,151.6,67.3,152.1,67.2,152.7z M68.6,109.3
			c0.6-0.8,0.9-1.6,0.9-2.6c0-0.9-0.4-1.6-1-2.2l-4.2,5.1c0.2,0.2,0.4,0.5,0.6,0.8s0.4,0.5,0.6,0.8c1.1,1.6,1.8,2.9,2.1,4.1
			c0.3,1.2,0.4,2.3,0.2,3.2c-0.1,0.9-0.4,1.7-0.9,2.4c-0.4,0.7-0.9,1.2-1.3,1.7c-0.3,0.4-0.9,0.9-1.6,1.3c-0.7,0.5-1.6,0.8-2.7,1
			c-1.1,0.2-2.2,0.1-3.6-0.2c-1.3-0.3-2.7-1-4.3-2.1l-1.6,1.9l-1.7-1.4l1.6-1.9c-2-1.9-3.2-4-3.4-6.2s0.5-4.5,2.1-6.9l4.1,3.4
			c-0.9,1.1-1.3,2.2-1.3,3.3c0.1,1.1,0.5,2.1,1.2,3l5-6c-0.1-0.1-0.2-0.3-0.3-0.5s-0.3-0.4-0.4-0.6c-0.6-0.8-1.1-1.6-1.5-2.4
			c-0.5-0.8-0.8-1.7-1-2.6s-0.2-1.8,0-2.7c0.2-0.9,0.7-1.9,1.5-2.8c0.8-1,1.7-1.7,2.7-2.1s2-0.7,3-0.7c1,0,2.1,0.2,3.1,0.6
			s2,0.9,2.9,1.6l1.4-1.7l1.7,1.4l-1.4,1.7c0.8,0.8,1.4,1.7,2,2.6c0.5,0.9,0.9,1.8,1.1,2.8s0.1,2-0.1,3s-0.7,2.1-1.5,3.1L68.6,109.3
			z M101.5,163.5L101.5,163.5L101.5,163.5L101.5,163.5l-27.7,3.3l3.3-27.7l0,0l0,0l0,0l0,0l49.2-49.2l24.4,24.4L101.5,163.5z
			 M132.2,84l16-16l24.4,24.4l-16.1,16.1L132.2,84z"/>
		<polygon id="XMLID_587_" class="st0" points="93.9,143 131.6,105.3 127.5,101.3 89.8,139 		"/>
	</g>
</g>
</svg>
