<?xml version="1.0" encoding="utf-8"?>
<!-- Generator: Adobe Illustrator 19.0.0, SVG Export Plug-In . SVG Version: 6.00 Build 0)  -->
<svg version="1.1" id="图层_1" xmlns="http://www.w3.org/2000/svg" xmlns:xlink="http://www.w3.org/1999/xlink" x="0px" y="0px"
	 viewBox="0 0 200 200" style="enable-background:new 0 0 200 200;" xml:space="preserve">
<style type="text/css">
	.st0{fill:#FFFFFF;}
</style>
<path id="XMLID_713_" class="st0" d="M178.6,84.7c0-2.4-1-4.6-2.9-6.2c-1.6-1.4-3.7-2.2-5.9-2.2c-0.3,0-0.6,0-0.8,0l-8.3,0.8
	c-4.3-10.3-11.6-19.4-20.9-26.4l-1.4-19c0-3.3-1.9-6.4-4.8-8c-1.6-0.9-3.3-1.3-5.1-1.3c-1.7,0-3.4,0.4-4.9,1.2l-23.2,11.7
	c-3.3-0.4-6.7-0.6-10.1-0.6c-20.4,0-39,7-52.6,18.6c-13.4,11.3-22,27.5-22,45.4c0,20.2,10.8,38,27.5,49.7l-2.3,14.2
	c0,0.3-0.1,0.5-0.1,0.9c0,2,0.8,4,2.2,5.6c1.7,1.8,4.1,2.8,6.6,2.8h28.9c2.2,0,4.9-1,6.6-2.8c1.2-1.3,1.7-3.5,1.7-5.6
	c0-0.4,0-0.7,0-1v-3.3c1.2,0.1,2.3,0.1,3.5,0.1c0.7,0,1.4,0,2,0v3.3c0,0.3,0,0.6,0,1c0,2,0.3,4,1.7,5.6c1.7,1.8,4.1,2.8,6.6,2.8
	h28.9c2.5,0,4.9-1,6.6-2.8c1.4-1.5,2.2-3.5,2.2-5.6c0-0.4,0-0.8-0.1-1l-2.1-13.2c10.9-7.3,19.4-17.2,24.3-28.7l8.4,0.8
	c0.3,0,0.5,0,0.8,0c2.2,0,4.3-0.8,5.9-2.2c1.9-1.6,2.9-3.9,2.9-6.2L178.6,84.7z M86.4,60.7L86.4,60.7c0,0-0.2,0-0.6,0
	c-3.4,0.2-18.9,2.1-29.2,11.8c-1.1,1-2.4,1.5-3.8,1.5c-1.4,0-2.9-0.5-3.9-1.6C46.8,70.3,46.8,67,49,65
	c15.7-14.4,36.6-14.7,37.2-14.8c3-0.1,5.6,2.2,5.6,5.1C91.9,58.2,89.5,60.6,86.4,60.7z M142.9,91.6c-3.1,2.8-9.6,1-14.4-3.9
	c-4.9-5-6.3-11.2-3.2-14s9.6-1,14.4,3.9C144.6,82.6,146,88.8,142.9,91.6z"/>
</svg>
