<?xml version="1.0" encoding="utf-8"?>
<!-- Generator: Adobe Illustrator 19.0.0, SVG Export Plug-In . SVG Version: 6.00 Build 0)  -->
<svg version="1.1" id="图层_1" xmlns="http://www.w3.org/2000/svg" xmlns:xlink="http://www.w3.org/1999/xlink" x="0px" y="0px"
	 viewBox="0 0 200 200" style="enable-background:new 0 0 200 200;" xml:space="preserve">
<style type="text/css">
	.st0{fill:#FFFFFF;}
</style>
<path id="XMLID_639_" class="st0" d="M94.6,98.4L94.6,98.4L94.6,98.4L94.6,98.4l-12.3,37.7l37.7-12.3l0,0l0,0l66.4-66.4L161,32
	L94.6,98.4L94.6,98.4z M117,118.8l-25.5,8.3l8.3-25.5L117,118.8z M150.2,147.6c0,3.3-2.7,5.9-5.9,5.9h-98c-3.3,0-5.9-2.7-5.9-5.9
	V52.4c0-3.3,2.7-5.9,5.9-5.9h82.4l17.4-17.4c-1.5-0.3-3.1-0.5-4.7-0.5H46.3c-13.1,0-23.8,10.6-23.8,23.8v95.2
	c0,13.1,10.7,23.8,23.8,23.8h98c13.1,0,23.8-10.6,23.8-23.8V94.8l-17.8,17.8v35H150.2z M61.9,97.3v-3.6c2.7-0.2,4.9-0.7,6.7-1.6
	c1.7-0.9,3.1-1.9,4.2-3.1c1-1.2,1.7-2.3,2.1-3.6c0.4-1.2,0.6-2.2,0.6-3c0-0.9-0.1-1.9-0.2-3.1s-0.5-2.3-1.2-3.5s-1.8-2.3-3.2-3.3
	c-1.4-1.1-3.5-2-6.2-2.7c-0.5-0.1-1-0.3-1.4-0.4c-0.5-0.1-0.9-0.2-1.3-0.3v-9.6c1.2,0,2.3,0.5,3.1,1.5c0.9,1,1.3,2.2,1.4,3.7h7.7
	c-0.1-1.9-0.5-3.5-1.2-4.9s-1.6-2.5-2.7-3.4s-2.3-1.6-3.8-2.2c-1.4-0.5-3-0.9-4.6-1.1v-3.2h-3.2v3.2c-1.6,0.1-3.2,0.4-4.7,0.9
	s-2.9,1.3-4,2.2c-1.2,1-2.1,2.1-2.8,3.6c-0.7,1.4-1.1,3-1.1,4.9c0,1.8,0.3,3.3,0.9,4.5c0.6,1.2,1.4,2.2,2.5,3c1,0.8,2.2,1.5,3.5,2
	s2.6,0.9,4,1.3c0.4,0.1,0.7,0.2,1,0.2c0.3,0.1,0.6,0.2,0.7,0.2v11.3c-1.7-0.3-3.1-1.1-4.2-2.3c-1.1-1.2-1.7-2.8-1.6-4.9h-7.7
	c0.4,4.3,1.7,7.5,4,9.7s5.4,3.5,9.5,3.7V97h3.2V97.3z M61.9,77c2.1,0.6,3.6,1.2,4.5,1.9c0.9,0.7,1.3,1.8,1.3,3.2
	c0,0.9-0.2,1.6-0.5,2.3c-0.4,0.6-0.8,1.2-1.4,1.6s-1.2,0.8-1.9,1c-0.7,0.2-1.4,0.4-2,0.5V77z M54.9,66.8c-0.8-0.7-1.1-1.6-1.1-2.8
	c0-0.8,0.1-1.4,0.4-2c0.3-0.6,0.6-1,1.1-1.4s1-0.7,1.6-0.8c0.6-0.2,1.2-0.3,1.8-0.3v8.8C56.9,67.9,55.7,67.4,54.9,66.8z"/>
</svg>
