<?xml version="1.0" encoding="utf-8"?>
<!-- Generator: Adobe Illustrator 19.0.0, SVG Export Plug-In . SVG Version: 6.00 Build 0)  -->
<svg version="1.1" id="图层_1" xmlns="http://www.w3.org/2000/svg" xmlns:xlink="http://www.w3.org/1999/xlink" x="0px" y="0px"
	 viewBox="0 0 200 200" style="enable-background:new 0 0 200 200;" xml:space="preserve">
<style type="text/css">
	.st0{fill:#FFFFFF;}
</style>
<g id="XMLID_556_">
	<path id="XMLID_568_" class="st0" d="M53.3,174.5c-1.5,0-3-0.5-4.3-1.4c-2.3-1.7-3.5-4.6-2.8-7.4L56.6,117L19.5,83.8
		c-2.2-1.9-3-4.9-2.1-7.7c0.9-2.7,3.3-4.7,6.2-5L73.2,66l20.1-45.5c1.2-2.6,3.8-4.4,6.7-4.4c2.9,0,5.5,1.7,6.7,4.4L126.8,66
		l49.5,5.1c2.9,0.3,5.3,2.3,6.2,5c0.9,2.8,0.1,5.8-2.1,7.7l-37,33.2l10.5,48.7c0.6,2.8-0.5,5.7-2.8,7.4s-5.5,1.9-8,0.4l-43-25
		l-43.1,25C55.8,174.2,54.5,174.5,53.3,174.5z M41.6,84l27.9,25c2,1.8,2.8,4.4,2.3,7l-7.9,36.7l32.4-18.8c2.3-1.3,5.1-1.3,7.3,0
		l32.4,18.8l-7.9-36.7c-0.6-2.6,0.3-5.2,2.3-7l27.9-25L121,80.2c-2.6-0.3-4.9-1.9-5.9-4.3L100,41.5L84.8,75.8
		c-1.1,2.4-3.3,4-5.9,4.3L41.6,84z"/>
</g>
</svg>
